<?xml version="1.0" encoding="utf-8"?>
<!-- Generator: Adobe Illustrator 26.1.0, SVG Export Plug-In . SVG Version: 6.00 Build 0)  -->
<svg version="1.1" id="Слой_1" xmlns="http://www.w3.org/2000/svg" xmlns:xlink="http://www.w3.org/1999/xlink" x="0px" y="0px"
	 viewBox="0 0 200 200" style="enable-background:new 0 0 200 200;" xml:space="preserve">
<style type="text/css">
	.st0{fill:url(#SVGID_1_);}
</style>
<linearGradient id="SVGID_1_" gradientUnits="userSpaceOnUse" x1="-307.5593" y1="3.1928" x2="-306.0745" y2="4.6776" gradientTransform="matrix(125.79 0 0 98.47 38706.7109 -291.892)">
	<stop  offset="0" style="stop-color:#FF89BB"/>
	<stop  offset="1" style="stop-color:#FF1E6D"/>
</linearGradient>
<path class="st0" d="M185.6,35.5c-4.6-4.6-12.2-4.6-16.8,0L70.7,148.7l-43.8-43.8c-4.6-4.6-12.2-4.6-16.8,0s-4.6,12.2,0,16.8
	l53.1,53.1c2.3,2.3,5.4,3.5,8.4,3.5s6.1-1.2,8.4-3.5L193.4,61.5C190.2,47.7,190.2,40.2,185.6,35.5z M167.5,53.7L55.6,165.5L20.1,130
	c-2.3-2.3-3.5-5.4-3.5-8.4s1.2-6.1,3.5-8.4L109,65.1c0.7-0.7,1.6-1.4,2.5-1.9l53.1,53.1C173.7,65.8,173.7,58.3,167.5,53.7z"/>
</svg>
