<?xml version="1.0" encoding="utf-8"?>
<!-- Generator: Adobe Illustrator 28.1.0, SVG Export Plug-In . SVG Version: 6.00 Build 0)  -->
<svg version="1.1" id="Слой_1" xmlns="http://www.w3.org/2000/svg" xmlns:xlink="http://www.w3.org/1999/xlink" x="0px" y="0px"
	 viewBox="0 0 1028 1022" style="enable-background:new 0 0 1028 1022;" xml:space="preserve">
<style type="text/css">
	.st0{clip-path:url(#SVGID_00000179626510920094426700000006020566975447390090_);}
	.st1{stroke:#000000;stroke-miterlimit:10;}
	.st2{fill:#FFFFFF;}
	.st3{display:none;}
	.st4{display:none;fill:none;stroke:#000000;stroke-width:20;stroke-miterlimit:10;}
	.st5{fill:url(#SVGID_00000024685805793992335920000007650544209379299987_);}
	.st6{fill:url(#SVGID_00000000920173916814485660000000234440694593797263_);}
	.st7{fill:url(#SVGID_00000090984761465104195830000009154343690459196319_);}
	.st8{fill:#FD9B9D;}
	.st9{fill:#FFFFFF;filter:url(#Adobe_OpacityMaskFilter);}
	.st10{mask:url(#mask0_82_88_00000068638049231437201870000002280692627124749243_);}
	.st11{fill:url(#SVGID_00000072996936329200638780000001853122623513844143_);}
	.st12{fill:#FFFFFF;filter:url(#Adobe_OpacityMaskFilter_00000071557027118954628060000011545516847536466319_);}
	.st13{mask:url(#mask1_82_88_00000120561055138615293650000017707286821982580131_);}
	.st14{fill:url(#SVGID_00000088103528836011756250000014999953351069726119_);}
	.st15{fill:#FFFFFF;filter:url(#Adobe_OpacityMaskFilter_00000047030819208478716580000006281591850976122758_);}
	.st16{mask:url(#mask2_82_88_00000075134747822986753770000010106422241070690443_);}
	.st17{fill:url(#SVGID_00000070092407901175473160000002123048617450446270_);}
	.st18{fill:#FFFFFF;filter:url(#Adobe_OpacityMaskFilter_00000018958940170076620580000007176700320027098524_);}
	.st19{mask:url(#mask3_82_88_00000152960917460556559870000008713754618321364915_);}
	.st20{fill:url(#SVGID_00000040551024523170468230000017461417808139445679_);}
	.st21{fill:#FFFFFF;filter:url(#Adobe_OpacityMaskFilter_00000078750939833012326660000012194674523235080832_);}
	.st22{mask:url(#mask4_82_88_00000037677630687315136000000009989031144506653098_);}
	.st23{fill:url(#SVGID_00000164473414865137456500000007983775297201466020_);}
	.st24{fill:#FFFFFF;filter:url(#Adobe_OpacityMaskFilter_00000157296177400449604970000008639213170734209694_);}
	.st25{mask:url(#mask5_82_88_00000110469753147650041550000003904635523558670498_);}
	.st26{fill:url(#SVGID_00000084516805983471223330000008968109308216093334_);}
</style>
<g>
	<defs>
		<rect id="SVGID_1_" width="1028" height="1022"/>
	</defs>
	<clipPath id="SVGID_00000032620889888919314020000009438043013660851134_">
		<use xlink:href="#SVGID_1_"  style="overflow:visible;"/>
	</clipPath>
	<g style="clip-path:url(#SVGID_00000032620889888919314020000009438043013660851134_);">
		<path class="st1" d="M1023.4,636.9c-6.4-16.2-19.1-26.1-31.2-36.3c-17.3-14.6-37.6-22.9-58.6-28.6c-7-1.9-8.2-5.5-5-12.1
			c2.4-4.9,4.6-10,6.3-15.3c6.2-18.8,6.8-39,13.9-57.6c10-26.2,24-46.8,51.5-51.9c10.6-2,15.2-14.4,8.9-24.2
			c-2.9-4.6-6.5-8.6-10.7-12.1c-29.4-24.4-62.9-35.6-99.3-37.1c-8-0.3-11.8-3.5-14.1-11.3c-3.1-10.4-1.4-20.9-2-31.4
			c-1.6-28.1,10.7-47.9,31-63c5.4-4,12-7.7,10.8-16.2c-1.1-7.7-5.4-13.3-12.3-16.8c-14.9-7.5-29.5-14.7-46.4-16.4
			c-32-3.3-62.7-0.3-92.5,13.4c-14.8,6.8-27.7,17-41.6,28.4c1.7-36.3,0-70.6-9.5-103.9c-3.9-13.6-7.5-27.2-14.4-39.3
			c-6.1-10.5-14.7-13.7-25.2-9.2c-6.7,2.8-13.3,6.1-19.5,9.9c-34,20.8-64.8,46.1-90.2,78.7c-4.9,6.3-9.2,7.2-15.9,4.5
			c-23.5-9.5-48.8-10.8-71.8-3.2c-20,6.6-30.7,0.8-43.2-14.6c-26.7-32.9-60.4-55.9-96.5-74.5c-11.2-5.8-21.8-2.7-26.7,7.8
			c-7.4,15.7-12.8,32.4-16,49.7c-5.5,29.7-10.4,59.6-6.9,91.6c-2.5-1.4-3.7-1.9-4.7-2.7c-24.8-19.5-51.3-33.5-82.5-36.4
			c-32.3-3-63.4-1.5-92.6,16.2c-6.6,4-10.9,8.2-11.2,16.9c-0.4,8.6,4.2,12.6,10,16.6c12.9,9.1,23.1,21.1,28.3,37.2
			c6.7,20.8,4.2,41.5-1,62.1c-1,4.1-3.4,5.5-6.8,5.3c-16.3-1.1-32.1,2.5-47.7,7c-25.4,7.3-49,18.9-67.2,40.8
			c-7.9,9.5-3.6,23.9,8.1,25.8c23.9,4,37.5,21.6,47.5,43.1c13,28.2,13,61.2,27.3,89.3c-8.8,6.1-17.9,8-26.7,10.7
			c-29.8,9.3-52.9,28.9-70.8,55.9c-7.7,11.7-1.9,23.5,11.2,25c21.6,2.5,38.9,13.1,51.7,32.6c9.6,14.7,15.7,31.6,24.9,46.5
			c27.3,43.7,64,70.6,111.7,82.6c41,10.3,79.6,3.6,117.9-10.2c10.9-3.9,15.6-2.5,22.5,6.8c22.1,29.8,50,50,85.3,55.5
			c21.3,3.3,41-1.2,57.4-17.5c17.8-17.7,26.1-37.9,27.1-57.5c0-0.5,0-1,0.1-1.5c1.5-48.7-42-92.4-95.2-81.4
			c-10.6,2.2-20.2,12.9-18.4,19.7c3.1,11.6,12,13.2,21.5,12.7c0.7,0,1.4,0,2.1,0c22.8,0.1,42.2,15.2,50.6,38.6
			c6,16.9-4.7,48.2-29.5,48.3c-29.8,0.1-51.8-14.8-70.3-37.6c-30-36.8-35.7-81.4-27.5-127.6c6.6-37.1,19.9-72.3,35.7-106.2
			c2.5-5.3,5.2-6,9.9-3.8c9.5,4.3,19.3,7.6,28.6,12.2c32.9,16.3,56.9,52.8,54.9,90c-0.5,9.2-3.2,11-10.9,8.1
			c-14.1-5.3-23.3-16.3-31.5-29.2c-4.9-7.7-12.3-11.5-20.6-6.7c-6.9,4-10.9,10.9-7.8,19.8c8.1,23.2,21,42.7,42.6,51.7
			c21.1,8.8,48.3,7.8,60.3-21.8c0.8-2,1.8-4.2,4.9-3.8c0.9,1.2,2,2.6,3,4.1c19.8,29.6,36.4,33.9,67,17.4c15.1-8.2,25.3-21.7,33-37.5
			c6.1-12.6,3.3-25.1-5.2-29.8c-9.4-5.2-15.7-1.5-24,11.7c-6.6,10.5-15.1,19.3-26.2,24.3c-7.2,3.2-11,1.5-11.4-7.9
			c-0.4-9.5,2-18.6,2.6-28.9c6.4-20,15.2-37.1,31-48.8c13.7-10.2,29.2-16,44.3-23.1c9.2-4.3,13.5-1.1,16.8,7.1
			c12.1,30.1,24.1,60.3,31.5,92.4c10,43.3,7.1,84.5-16.2,122c-19.8,31.8-45.2,54.1-83.1,51.5c-11.2-0.8-21.8-10-24.4-21.9
			c-7.5-34.3,13.2-63.6,45.3-64.3c5.1-0.1,10.3,0,15.4-0.7c5.6-0.8,9.3-4.8,10.7-10.7c1.5-6.2-0.8-10.6-5.8-14.2
			c-16-11.7-33.5-10.7-50.4-5c-29.9,10-51.1,45.1-52.1,80.2c-0.6,19.6,5.1,39.2,19,54.5c23.9,26.4,53.6,26.4,83.2,15.4
			c27.4-10.2,49.9-29.1,66.5-55.6c3.6-5.8,7.4-6.2,13.2-3.8c35.6,15.4,72.4,21.7,110.6,15.6c26.3-4.2,51.1-13.5,73.6-29.1
			c30.7-21.2,51.3-52,67.1-87.2c12.8-28.5,32.1-47.1,62.7-48.4C1023,658.3,1027.7,647.7,1023.4,636.9z M716,324.7
			c29.5-52.7,88.2-87.8,142.8-81.5c3.6,0.4,7.2,1.8,11.8,3.1c-18.7,25.8-27.8,53.9-24.2,86.1c1.3,7.9,1.9,13.9,3.6,19.6
			c2.4,7.7,0.7,12.2-6.6,14.4c-31.8,9.6-57.5,30-81.5,54c-3.8,3.8-6.9,11-15.1,8c3.6-7.9,10.7-10.6,15.9-15.5
			c15.3-14.5,14.6-22.8-2.8-33.4c-16.9-10.3-32-22.9-42.6-41.3C714.7,333.5,713.3,329.4,716,324.7z M212.9,246.6
			c44,10,74.6,37.1,97.5,76.3c3.2,5.5,2.8,9.9-0.3,15.4c-9.4,17.1-22.2,30-38.3,39.1c-4.5,2.6-8.9,5.5-12.9,8.9
			c-4.7,4-5.9,8.7-1.8,14.6c4,5.7,8.7,10.4,13.9,14.7c3.9,3.2,8.3,6.1,10.9,12.3c-7.2,1.8-10.3-3.8-13.5-7.1
			c-20.5-21.4-43.9-37.7-69.7-50.1c-1.3-0.6-2.5-1.4-3.8-1.8c-17.3-5.9-17.4-5.9-14.2-26.1c4.1-25.9,1.4-50.8-8.4-74.7
			c-2.8-6.8-9-11.3-11.1-21.1C178.6,239.7,195.7,241.9,212.9,246.6z M312.9,772.3c-28.4,13.3-57.8,17.1-88.3,12.1
			c-36.5-6-67.2-24.1-91.3-54.6c-9.4-11.8-15.9-25.9-22.4-40c-11.2-24.6-27.8-44.1-50.4-57c21.6-27.7,82.5-35.9,128-9.2
			c13.3,7.1,25.5,13,37.2,19.9c23.5,14.1,49.6,15.9,75.2,19.7c12.3,1.8,13.1,2.6,11.6,16c-2.9,27.1-1.9,54,5.8,80.2
			C320.4,766.3,318.7,769.6,312.9,772.3z M351.1,551.8c-10.2,21.2-18.7,43.3-25.4,66.2c-1.6,5.4-4.3,8-9.7,8
			c-28.1-0.5-54.8-7.2-80-20.9c-27.4-15-54.3-31.7-85.5-35.6c-3.6-0.4-5.1-3-7-5.8c-12.6-18.2-17.9-39.6-21.8-61.2
			c-5.7-31.2-16.7-58.6-39.6-79.1c-2.4-2.1-5.4-4.1-4.5-8.1c0.9-3.9,4.5-3.7,7.3-5c26.5-12.2,54.2-12.9,81.8-8.2
			c19.4,3.3,36.6,14.2,52.7,26.4c11.8,8.9,22.5,19.5,33.6,29.4c25.5,24,48.7,48.5,75.3,68.3c6.2,4.6,12.5,9.2,19.1,13.1
			C353.1,542.2,353.9,546,351.1,551.8z M622.9,521.4c-36,12.4-68.7,29.4-89.5,66.2c-6,10.6-9.6,22.3-13.8,33.8
			c-1.4,3.8-2.9,7.6-4.6,12.1c-6-5.6-5.3-13.4-7.6-19.6c-16.2-43-44.1-71.5-84.7-86.1c-23.9-8.6-48.3-16.4-70.2-30.6
			c-4.1-2.6-8-5.5-11.9-8.2c7.3-16.2,4-22.5-11.8-23.4c-7.1-0.4-13.5-1.8-18.2-7.8c-0.2-3.8,2.3-5,4.4-5.8
			c11.6-4.8,18.8-14.7,24.8-25.9c4.5-8.6,1.1-16.6-7.8-16.7c-9.3-0.2-16-5.5-24.9-11.2c12.8-9,23.5-18.9,30.9-32.7
			c5.8-10.7,10.9-21.7,14.4-33.4c2.6-8.9-3.9-16.4-7-23.9c-14.4-35.1-15.6-71.8-12.8-109.3c1.2-15.4,2.6-30.5,7.4-45.3
			c2.9-9.1,6.6-11.6,14-7c19.4,12,37.9,25.4,54.4,41.9c12.9,12.9,25.4,26.4,35.5,42.2c5.1,8.1,12,5.1,17.5,2.1
			c29-15.9,59.1-12.8,89.4-6.9c7.4,1.4,13.6,6.9,21,9c5.1,1.4,8.3,0.6,11.5-3.9c21.6-29.4,47.2-54,75.7-74.9
			c6.2-4.6,13.3-7.7,20-11.4c8.6-1.8,9,4.4,10.2,9.3c10.8,42.7,14.3,85.4,2.2,128.8c-3.8,13.7-6.9,27.3-13.9,39.6
			c-2.7,4.8-2.6,10.3-0.5,15.2c10.3,23.9,22.4,46.3,45,60.2c-6.4,5.3-12.8,9.2-20.2,10.9c-4.9,1.1-11-0.5-12.6,6.9
			c-1.6,7.5,0.8,14,5.3,19.7c6.7,8.4,13.7,16.6,24.8,21c-6,6.8-12.2,8.8-19.1,9.5c-17,1.9-19.3,6.6-11.5,22.9
			C668.6,503.8,645.9,513.5,622.9,521.4z M700.6,610.2c-5.6-18.5-12.2-36.5-20.9-53.5c-4.2-8.2-6.5-14.2,4.1-20.3
			c26.7-15.5,49.4-37.3,71.8-59.4c20.8-19.5,39.2-39.9,61.7-54.5c27.1-17.6,55.9-26.2,88-22.3c14.2,1.7,27.4,5.6,40.7,10.3
			c2.6,0.9,5.3,1.6,7,5.8c-9.5,10-19.6,19.9-27.1,32.5c-13.9,23.2-17.5,50.1-23.4,76.1c-3.2,14.4-9,27.5-16.2,39.8
			c-1.3,2.2-3,4.2-5.7,4.4c-18.7,1.3-35.8,9.4-53,16.4c-11.4,4.7-22,11.8-32.8,18.1c-23.4,13.7-48.6,19.2-74.7,22.4
			C707.9,627.7,703.7,620.5,700.6,610.2z M948.8,646.2c-17.6,15.6-27,37.2-38,57.9c-27.3,51.4-67.2,80.6-122.3,82.2
			c-25.2,0.7-49.7-3.2-73.1-14.2c-5.8-2.7-7.8-5.3-5.6-12.6c7.6-25,8.4-50.8,5.1-76.8c-2.2-17.5-1.4-18.5,14-19.6
			c33.9-2.5,65.6-13.3,95.3-31.5c25.7-15.8,52.6-27,82.8-24.7c5.1,0.4,10.2,1.4,15.2,2.2c18,3.5,33.4,9,47.1,21.1
			C963.8,637.9,955.3,640.5,948.8,646.2z"/>
		<path class="st2" d="M645.2,568.9c-3.3-8.2-7.6-11.3-16.8-7c-15,7-30.5,12.8-44.2,22.9c-15.8,11.7-24.5,28.6-30.9,48.6
			c-0.6,10.2-3,19.3-2.6,28.8c0.4,9.3,4.2,11,11.3,7.8c11.1-5,19.5-13.7,26.2-24.2c8.3-13.2,14.6-16.9,24-11.6
			c8.5,4.7,11.3,17,5.1,29.6c-7.6,15.7-17.8,29.2-32.9,37.3c-30.5,16.4-47,12.2-66.8-17.3c-1-1.5-2.1-2.9-3-4
			c-3-0.4-4.1,1.8-4.9,3.7c-12,29.4-39,30.5-60.1,21.7c-21.6-9-34.4-28.3-42.5-51.4c-3.1-8.8,0.9-15.7,7.8-19.7
			c8.3-4.8,15.6-1,20.5,6.6c8.2,12.8,17.4,23.8,31.5,29.1c7.7,2.9,10.4,1.1,10.9-8c2-36.9-22-73.2-54.7-89.5
			c-9.3-4.6-19.1-7.9-28.5-12.2c-4.7-2.1-7.4-1.4-9.8,3.8c-15.7,33.7-29,68.7-35.6,105.6c-8.2,46-2.5,90.3,27.4,126.9
			c18.5,22.6,40.5,37.4,70.1,37.4c24.7,0,35.4-31.2,29.4-48c-8.4-23.3-27.7-38.3-50.4-38.4c-0.7,0-1.4,0-2.1,0
			c-9.5,0.5-18.3-1.1-21.4-12.6c-1.8-6.8,7.8-17.4,18.3-19.6c0.8-0.2,1.6-0.3,2.5-0.5c0.3-0.1,0.6-0.1,0.9-0.1
			c0.5-0.1,1-0.2,1.6-0.2c0.3,0,0.7-0.1,1-0.1c0.5-0.1,1-0.1,1.5-0.2c0.4,0,0.7-0.1,1-0.1c0.5-0.1,0.9-0.1,1.4-0.1
			c0.4,0,0.7,0,1.1-0.1c0.4,0,0.9-0.1,1.3-0.1c0.4,0,0.7,0,1.1,0c0.4,0,0.9,0,1.3,0c0.4,0,0.7,0,1.1,0c0.4,0,0.9,0,1.3,0
			c0.4,0,0.7,0,1.1,0c0.4,0,0.8,0,1.3,0c0.4,0,0.7,0,1.1,0.1c0.4,0,0.8,0,1.2,0.1c0.4,0,0.7,0.1,1.1,0.1c0.4,0,0.8,0.1,1.2,0.1
			c0.4,0,0.7,0.1,1.1,0.1c0.4,0,0.8,0.1,1.2,0.1c0.4,0.1,0.7,0.1,1.1,0.2c0.4,0.1,0.8,0.1,1.2,0.2c0.4,0.1,0.7,0.1,1.1,0.2
			c0.4,0.1,0.8,0.1,1.2,0.2c0.4,0.1,0.7,0.1,1.1,0.2c0.4,0.1,0.8,0.1,1.1,0.2c0.4,0.1,0.7,0.2,1.1,0.2c0.4,0.1,0.8,0.2,1.1,0.3
			c0.3,0.1,0.7,0.2,1,0.3c0.4,0.1,0.7,0.2,1.1,0.3c0.3,0.1,0.7,0.2,1,0.3c0.4,0.1,0.7,0.2,1.1,0.3c0.3,0.1,0.7,0.2,1,0.3
			c0.4,0.1,0.7,0.2,1.1,0.4c0.3,0.1,0.7,0.2,1,0.4c0.4,0.1,0.7,0.3,1.1,0.4c0.3,0.1,0.7,0.3,1,0.4c0.4,0.1,0.7,0.3,1.1,0.4
			c0.3,0.1,0.7,0.3,1,0.4c0.4,0.1,0.7,0.3,1,0.5c0.3,0.1,0.6,0.3,1,0.4c0.3,0.2,0.7,0.3,1,0.5c0.3,0.2,0.6,0.3,1,0.5
			c0.3,0.2,0.7,0.3,1,0.5c0.3,0.2,0.6,0.3,0.9,0.5c0.3,0.2,0.7,0.3,1,0.5c0.3,0.2,0.6,0.4,0.9,0.5c0.3,0.2,0.7,0.4,1,0.6
			c0.3,0.2,0.6,0.4,0.9,0.5c0.3,0.2,0.6,0.4,1,0.6c0.3,0.2,0.6,0.4,0.9,0.6c0.3,0.2,0.6,0.4,0.9,0.6c0.3,0.2,0.6,0.4,0.9,0.6
			c0.3,0.2,0.6,0.4,0.9,0.6c0.3,0.2,0.6,0.4,0.9,0.6c0.3,0.2,0.6,0.4,0.9,0.7c0.3,0.2,0.6,0.4,0.8,0.7c0.3,0.2,0.6,0.5,0.9,0.7
			c0.3,0.2,0.5,0.5,0.8,0.7c0.3,0.2,0.6,0.5,0.9,0.7c0.3,0.2,0.5,0.5,0.8,0.7c0.3,0.2,0.6,0.5,0.8,0.7c0.3,0.2,0.5,0.5,0.8,0.7
			c0.3,0.2,0.5,0.5,0.8,0.8c0.3,0.2,0.5,0.5,0.8,0.7c0.3,0.3,0.5,0.5,0.8,0.8c0.2,0.2,0.5,0.5,0.8,0.8c0.3,0.3,0.5,0.5,0.8,0.8
			c0.2,0.3,0.5,0.5,0.7,0.8c0.2,0.3,0.5,0.5,0.8,0.8c0.2,0.3,0.5,0.5,0.7,0.8c0.2,0.3,0.5,0.6,0.7,0.8c0.2,0.3,0.5,0.5,0.7,0.8
			c0.2,0.3,0.5,0.6,0.7,0.8c0.2,0.3,0.4,0.6,0.7,0.8c0.2,0.3,0.5,0.6,0.7,0.9c0.2,0.3,0.4,0.6,0.6,0.9c0.2,0.3,0.4,0.6,0.7,0.9
			c0.2,0.3,0.4,0.6,0.6,0.9c0.2,0.3,0.4,0.6,0.6,0.9c0.2,0.3,0.4,0.6,0.6,0.9c0.2,0.3,0.4,0.6,0.6,0.9c0.2,0.3,0.4,0.6,0.6,0.9
			c0.2,0.3,0.4,0.6,0.6,0.9c0.2,0.3,0.4,0.6,0.5,0.9c0.2,0.3,0.4,0.6,0.6,1c0.2,0.3,0.4,0.6,0.5,0.9c0.2,0.3,0.4,0.6,0.5,1
			c0.2,0.3,0.3,0.6,0.5,1c0.2,0.3,0.3,0.7,0.5,1c0.2,0.3,0.3,0.6,0.5,1c0.2,0.3,0.3,0.7,0.5,1c0.1,0.3,0.3,0.7,0.5,1
			c0.1,0.3,0.3,0.7,0.5,1c0.1,0.3,0.3,0.7,0.4,1c0.1,0.3,0.3,0.7,0.4,1c0.1,0.3,0.3,0.7,0.4,1c0.1,0.3,0.3,0.7,0.4,1s0.2,0.7,0.4,1
			c0.1,0.3,0.2,0.7,0.4,1c0.1,0.3,0.2,0.7,0.4,1c0.1,0.3,0.2,0.7,0.3,1c0.1,0.3,0.2,0.7,0.3,1c0.1,0.3,0.2,0.7,0.3,1.1
			c0.1,0.4,0.2,0.7,0.3,1c0.1,0.4,0.2,0.7,0.3,1.1c0.1,0.3,0.2,0.7,0.3,1c0.1,0.4,0.2,0.7,0.3,1.1c0.1,0.3,0.2,0.7,0.2,1.1
			c0.1,0.4,0.2,0.7,0.2,1.1s0.1,0.7,0.2,1.1c0.1,0.4,0.1,0.7,0.2,1.1c0.1,0.4,0.1,0.7,0.2,1.1c0.1,0.4,0.1,0.7,0.2,1.1
			c0,0.4,0.1,0.7,0.1,1.1c0.1,0.4,0.1,0.7,0.1,1.1c0,0.4,0.1,0.7,0.1,1.1c0,0.4,0.1,0.8,0.1,1.1c0,0.4,0.1,0.7,0.1,1.1
			c0,0.4,0,0.8,0.1,1.1c0,0.4,0,0.7,0.1,1.1c0,0.1,0,0.2,0,0.2l1.5,0c3.4-32.6,23.6-63.7,51.5-72.9c16.8-5.6,34.2-6.6,50.2,5
			c5,3.6,7.3,8,5.8,14.1c-1.4,5.8-5.2,9.8-10.7,10.6c-5.1,0.7-10.2,0.6-15.4,0.7c-32,0.7-52.6,29.8-45.2,63.9
			c2.6,11.8,13.2,21,24.3,21.8c37.8,2.6,63.1-19.5,82.8-51.1c23.3-37.3,26.1-78.2,16.2-121.3C669.2,628.8,657.3,598.9,645.2,568.9z"
			/>
		<path class="st2" d="M312.5,679.6c1.4-13.3,0.7-14.1-11.6-15.9c-25.6-3.7-51.6-5.6-75-19.6c-11.6-6.9-23.8-12.7-37.1-19.8
			c-45.3-26.5-106-18.4-127.5,9.2c22.5,12.8,39.2,32.2,50.3,56.6c6.4,14.1,13,28,22.3,39.8c24,30.4,54.6,48.3,91,54.3
			c30.3,5,59.7,1.2,88-12c5.8-2.7,7.5-6,5.5-12.9C310.6,733.3,309.7,706.5,312.5,679.6z"/>
		<path class="st2" d="M758.6,381.6c17.3,10.5,18,18.7,2.8,33.2c-5.1,4.9-12.2,7.6-15.8,15.4c8.2,3,11.2-4.1,15.1-7.9
			c23.8-23.8,49.5-44.2,81.2-53.7c7.2-2.2,8.9-6.6,6.6-14.3c-1.7-5.6-2.3-11.6-3.6-19.5c-3.6-32,5.5-59.9,24.1-85.6
			c-4.6-1.2-8.2-2.6-11.8-3.1c-54.5-6.2-113,28.6-142.4,81c-2.6,4.7-1.2,8.7,1.4,13.4C726.7,358.9,741.7,371.4,758.6,381.6z"/>
		<path class="st2" d="M347.5,540.1c-6.6-3.9-12.9-8.4-19-13c-26.6-19.7-49.7-44.1-75.1-67.9c-11.1-9.8-21.8-20.4-33.5-29.2
			c-16-12-33.2-23-52.6-26.2c-27.5-4.6-55.1-4-81.6,8.2c-2.8,1.3-6.4,1.1-7.3,5c-0.9,4,2.2,5.9,4.5,8c22.8,20.5,33.8,47.7,39.4,78.7
			c3.9,21.5,9.1,42.9,21.7,60.9c1.9,2.8,3.4,5.3,7,5.8c31.1,3.9,57.9,20.5,85.3,35.4c25.1,13.7,51.7,20.4,79.7,20.8
			c5.3,0.1,8.1-2.5,9.6-7.9c6.7-22.7,15.1-44.7,25.3-65.8C353.8,547.1,353,543.3,347.5,540.1z"/>
		<path class="st2" d="M181.2,345.2c-3.2,20-3,20.1,14.2,25.9c1.3,0.4,2.5,1.2,3.8,1.8c25.7,12.3,49.1,28.5,69.5,49.8
			c3.2,3.3,6.3,8.8,13.5,7.1c-2.6-6.1-7-9-10.9-12.2c-5.2-4.3-9.9-8.9-13.9-14.6c-4.1-5.8-2.9-10.6,1.8-14.5c4-3.4,8.4-6.2,12.9-8.8
			c16-9.1,28.7-21.9,38.1-38.9c3.1-5.5,3.5-9.9,0.3-15.4c-22.8-38.9-53.3-65.9-97.2-75.8c-17.2-4.6-34.2-6.8-51.5,0.5
			c2.1,9.7,8.3,14.2,11,20.9C182.6,294.7,185.2,319.5,181.2,345.2z"/>
		<path class="st2" d="M920.4,609.9c-5.1-0.7-10.1-1.8-15.2-2.2c-30.1-2.3-56.9,8.9-82.5,24.5c-29.6,18.1-61.2,28.9-95,31.4
			c-15.3,1.1-16.2,2.1-14,19.5c3.3,25.8,2.5,51.5-5.1,76.3c-2.2,7.2-0.2,9.8,5.6,12.5c23.3,11,47.7,14.9,72.9,14.2
			c54.9-1.6,94.7-30.7,121.9-81.7c11-20.5,20.4-42,37.9-57.5c6.4-5.7,15-8.3,20.5-16C953.7,618.8,938.4,613.3,920.4,609.9z"/>
		<path class="st2" d="M718.9,626.8c26-3.2,51.1-8.7,74.4-22.3c10.8-6.3,21.4-13.4,32.7-18c17.1-7,34.2-15,52.8-16.3
			c2.7-0.2,4.4-2.1,5.7-4.4c7.2-12.3,12.9-25.3,16.1-39.6c5.8-25.9,9.4-52.6,23.3-75.7c7.5-12.5,17.6-22.3,27-32.3
			c-1.7-4.2-4.4-4.8-7-5.7c-13.3-4.6-26.4-8.5-40.6-10.2c-32-3.9-60.7,4.7-87.8,22.2c-22.4,14.5-40.7,34.8-61.5,54.2
			c-22.3,22-44.9,43.6-71.6,59c-10.5,6.1-8.3,12-4.1,20.2c8.6,16.9,15.2,34.8,20.8,53.2C702.5,621.3,706.7,628.3,718.9,626.8z"/>
		<path class="st2" d="M337.9,367.6c-7.4,13.7-18,23.5-30.8,32.5c8.8,5.6,15.5,10.9,24.8,11.1c8.9,0.2,12.3,8.1,7.8,16.6
			c-5.9,11.1-13,21-24.7,25.8c-2.1,0.9-4.6,2-4.4,5.8c4.7,6,11.1,7.4,18.2,7.8c15.7,0.9,19,7.2,11.8,23.3c3.8,2.6,7.8,5.5,11.8,8.1
			c21.9,14.2,46.2,21.9,70,30.5c40.4,14.5,68.3,42.9,84.4,85.6c2.4,6.2,1.6,13.9,7.6,19.5c1.7-4.5,3.3-8.2,4.6-12
			c4.2-11.4,7.8-23,13.8-33.6c20.7-36.7,53.2-53.5,89.2-65.9c22.9-7.9,45.5-17.5,65.5-32.8c-7.8-16.2-5.4-20.9,11.5-22.8
			c6.9-0.8,13-2.7,19-9.5c-11.1-4.4-18-12.5-24.7-20.8c-4.5-5.6-6.9-12.1-5.3-19.5c1.6-7.4,7.7-5.8,12.6-6.9
			c7.3-1.6,13.8-5.5,20.1-10.8c-22.5-13.8-34.5-36.1-44.8-59.9c-2.1-4.9-4.3-11.3-1.5-16.1c6.9-12.2,12.1-24.7,15.8-38.3
			c12-43.2,8.5-85.6-2.2-128.1c-1.2-4.8-1.7-11-10.2-9.2c-6.6,3.8-13.7,6.8-19.9,11.4c-28.4,20.8-54,45.2-75.5,74.5
			c-3.2,4.4-6.4,5.3-11.5,3.9c-7.4-2-13.6-7.5-21-8.9c-30.2-5.8-60.2-8.9-89.1,6.9c-5.5,3-12.3,6-17.5-2.1
			c-10-15.8-22.5-29.1-35.4-42c-16.4-16.4-34.9-29.8-54.2-41.7c-7.4-4.6-11.1-2.1-14,6.9c-4.8,14.7-6.2,29.7-7.3,45
			c-2.8,37.2-1.6,73.7,12.8,108.6c3.1,7.5,9.6,14.9,7,23.8C348.7,346,343.6,356.9,337.9,367.6z"/>
		<path class="st2" d="M515.6,794.2c0,0.6,0,1.2,0,1.8c0-0.5,0-0.9,0-1.4C515.6,794.5,515.6,794.3,515.6,794.2z"/>
		<path class="st3" d="M386.5,969.6c-0.1,4-2.7,4.5-5.3,4.3c-3.5-0.2-7.9,1.5-9.8-3c-1.3-3-1.9-7,0.5-9.1c3.5-3.1,8.4-1.4,12.6-1.1
			c3.1,0.2,1.8,3.4,2.1,5.4C386.6,967.1,386.5,968.1,386.5,969.6z"/>
		<path class="st3" d="M445,972.9c-5.3,1.7-10.4,1-15.5,0.9c-4.4-0.1-6.1-3.1-5.8-7.3c0.3-3.9,1.8-6.4,6.3-6.1
			c3.2,0.2,6.4,0,9.6,0.1c2.6,0.1,5.8-0.9,7.1,2.4C448.1,966.2,448.5,969.8,445,972.9z"/>
		<path class="st3" d="M408.4,1020.2c-9.3,0-9.3,0-9.5-8.5c-0.2-14.6-0.4-29.2-0.6-43.8c0-2.5-0.6-5.8,2.1-6.9c3.5-1.4,7.4-1.1,11,0
			c1.7,0.5,1.5,2.5,1.5,4c0,16.7,0,33.3,0,50C413,1017.7,412.3,1020.1,408.4,1020.2z"/>
		<path class="st3" d="M494.8,1014.2c-11.3,10-25.7,10.1-36.9,0.8c-1.7-1.4-2.1-2.8-1.1-4.8c3.5-7.6,5.9-8.9,10.9-5.3
			c3,2.2,6.1,2.7,9.6,2.5c2.7-0.2,5.8,0.3,6.3-3.5c0.5-3.7-2.2-5.1-5-6.1c-4-1.4-8.1-2.2-12.1-3.9c-6-2.6-8.7-7.5-9.3-13.4
			c-0.7-6.8,1.2-13.2,7.3-16.8c9.9-5.8,20.1-4.5,30,0.2c4.9,2.4,2.2,6.1,0.6,9.1c-1.3,2.5-2.6,5.6-6.9,3.3
			c-4.1-2.2-8.6-4.5-13.5-1.6c-1.3,0.8-2.7,1.5-2.8,3.3c-0.1,2,1.4,2.9,2.9,3.8c4.5,2.8,10.1,2.9,14.6,5.6
			c10.3,6.2,12.5,14.4,6.4,24.7C495.6,1012.7,495.4,1013.3,494.8,1014.2z"/>
		<path class="st3" d="M678.5,982.2c0-5.8,0.1-11,0-16.3c-0.1-3.7,1.4-5.6,5.4-5.5c9.2,0.2,18.3,0.1,27.5,0c3.8,0,5.6,1.6,5.6,5.5
			c0,4,0,7.8-5.3,8.1c-4.6,0.2-9.2,0.2-13.7,0c-4.4-0.2-4.8,2.4-4.9,5.9c-0.1,3.7,1.3,5.3,5,5c3.4-0.2,6.8,0.2,10.2-0.1
			c4.4-0.3,5.2,2.6,5.3,5.8c0.1,3.2-0.8,6.2-5,6.2c-3.7,0-7.5,0.2-11.2,0c-4.2-0.2-4.1,2.4-4.1,5.3c0,3,0.1,5.4,4.2,5.2
			c4.9-0.2,9.8,0.2,14.8-0.1c4.4-0.3,5.2,2.4,5.3,5.7c0.1,3.3-0.1,7-4.5,7.2c-10.2,0.3-20.4,0.2-30.5,0.1c-3.8,0-4-3.1-4-5.9
			C678.5,1003.7,678.5,993.2,678.5,982.2z"/>
		<path class="st3" d="M536.4,993c0,4.8,1.7,8.4,4.9,11.2c5.8,5.2,13.6,3.2,16.4-4.2c1.9-5.1,1.2-10.4,1.4-15.6
			c0.3-6.3,0.2-12.6,0.1-18.9c-0.2-6.1,4-5,7.7-5.2c3.9-0.2,6.7,0.4,6.4,5.3c-0.6,12.4,0.8,24.8-0.9,37.1
			c-2,14.3-20.9,22.5-31.8,17.9c-12.9-5.4-18.8-13.6-18.8-27.7c0-8.8,0.1-17.7-0.1-26.5c-0.1-4.5,1.5-6.4,6.3-6.3
			c8.6,0.2,8.6,0,8.6,8.8C536.4,976.9,536.4,984.7,536.4,993z"/>
		<path class="st3" d="M356.5,1020.3c-6.8,1.2-11.4-1.6-15.6-6.1c-4.5-4.9-9.1-9.8-15-14.3c-1.1,5.4-0.7,10.1-0.6,14.7
			c0.1,4.5-2,6-6.2,5.8c-4-0.2-8.8,0.8-8.8-5.5c-0.1-16.6,0-33.3,0-49.9c0-3.1,1.5-4.4,4.7-4.6c10.2-0.5,10.2-0.6,10.2,9.4
			c0,2.6,0,5.3,0,9c5.3-3.6,8.7-7.6,11.8-11.5c4.3-5.5,9.2-8,16.1-6.9c2.6,0.4,5.4-0.5,8.3,0.8c-1.2,3.1-3.5,5.2-5.7,7.4
			c-5.9,5.7-11.8,11.5-17.7,17.1c-2.4,2.3-1.1,3.9,0.6,5.5c5.8,5.7,11.6,11.4,17.3,17.2c3.2,3.2,6.7,6.2,9,10.1
			C362.4,1021.2,359.5,1019.9,356.5,1020.3z"/>
		<path class="st3" d="M597.3,995.4c0-11.8,0-23.1,0-34.4c0.6-0.3,1.2-0.5,1.7-0.8c12.5,10.3,25.1,20.6,38.7,31.8
			c0-4.4,0-7.6,0-10.9c0-3.9,0-7.8,0-11.7c0-8.5,3.9-11.3,12-8.9c2.1,0.6,2.6,2.3,2.6,3.9c0.1,18.2,0,36.4,0,54.5
			c0,0.4-0.5,0.8-1.2,1.9c-13.6-8.9-25.3-20-39.2-30.4c0,8.2,0,15.5,0,22.6c0,6.4-5.4,9.8-11.5,7.1c-2-0.8-2.7-2.4-2.7-4.5
			C597.7,1009.2,597.5,1002.5,597.3,995.4z"/>
		<path class="st4" d="M514,56.4c12.7,0,23-9.7,23-21.8s-10.3-21.7-23-21.7s-23,9.7-23,21.7S501.3,56.4,514,56.4z"/>
		
			<radialGradient id="SVGID_00000183220561681078499190000010091547955626984857_" cx="206.6392" cy="907.7524" r="1" gradientTransform="matrix(152.846 0 0 -152.846 -31070.4668 139081.9688)" gradientUnits="userSpaceOnUse">
			<stop  offset="0" style="stop-color:#F29495;stop-opacity:0.7608"/>
			<stop  offset="1.501760e-04" style="stop-color:#F29697;stop-opacity:0.7633"/>
			<stop  offset="1.710430e-03" style="stop-color:#F2A1A2;stop-opacity:0.7896"/>
			<stop  offset="3.903540e-03" style="stop-color:#F2A8A9;stop-opacity:0.8266"/>
			<stop  offset="1.000000e-02" style="stop-color:#F2AAAB;stop-opacity:0.9294"/>
			<stop  offset="0.1576" style="stop-color:#F6C3C3;stop-opacity:0.9399"/>
			<stop  offset="0.3584" style="stop-color:#FADDDD;stop-opacity:0.9542"/>
			<stop  offset="0.5639" style="stop-color:#FDF0F0;stop-opacity:0.9689"/>
			<stop  offset="0.7749" style="stop-color:#FEFBFB;stop-opacity:0.984"/>
			<stop  offset="1" style="stop-color:#FFFFFF"/>
		</radialGradient>
		<path style="fill:url(#SVGID_00000183220561681078499190000010091547955626984857_);" d="M634.5,320.6c3,0.2,38.2,7.4,38.2,7.4
			l1.3-1.9c0,0-19.6-40.2-23.2-44.1c-35.3-37.7-49.7-58.5-138.5-64.2C415.9,211.8,353,323.6,353,323.6s32.2-13.1,55.3-10.4
			c20.9,2.5,58.1,8.6,76,36.8c13.2,20.9,26.2,103.6,26.2,103.6s17.6-72.1,30.7-92.7C555,339.5,587.8,317.3,634.5,320.6z"/>
		
			<linearGradient id="SVGID_00000163795245421436237540000008020164604562814397_" gradientUnits="userSpaceOnUse" x1="651.9188" y1="793.6168" x2="692.8816" y2="793.6168" gradientTransform="matrix(1 0 0 -1 0 1022)">
			<stop  offset="0" style="stop-color:#000000"/>
			<stop  offset="0.6653" style="stop-color:#AB696A"/>
			<stop  offset="1" style="stop-color:#FD9B9D"/>
		</linearGradient>
		<path style="fill:url(#SVGID_00000163795245421436237540000008020164604562814397_);" d="M687.8,175.4c0.5,6.9,1.2,13.1,1,19.4
			c-0.2,8.1-0.5,15.7,2.7,21.5c2.3,4.3,1.5,10.8,0.1,16.4c-4,15.2-4.1,30.3-5.2,45.5c-0.9,13.2-5.8,22.7-11.8,23.9
			c2.9-23.3,2.9-23.3-9-30.6c0.3-1.2,0.6-2.4,1-3.5c1.3-3.7,3.7-7.9,1.8-11.4c-2-3.7-5.2-2.4-8,0.5c-2.3,2.4-4.5,5.8-7,7
			c-0.3,0.1-0.7-0.2-1.2-0.5c-0.7-5.1,2-8.5,3.6-11.8c5.4-11.1,10.7-22.4,15.2-34.7c3.8-10.4,7.3-20.1,6.2-32.9
			c-0.8-9.1,4.1-18.5,6.7-27.6c0.5-1.8,1.9-2.4,3-1.6c1.1,0.8,1.1,2.8,1,4.8C687.2,164.9,686.2,170.3,687.8,175.4z"/>
		
			<linearGradient id="SVGID_00000090257070354920685550000004677676546048329910_" gradientUnits="userSpaceOnUse" x1="340.95" y1="794.5118" x2="391.1804" y2="794.5118" gradientTransform="matrix(1 0 0 -1 0 1022)">
			<stop  offset="0" style="stop-color:#FD9B9D"/>
			<stop  offset="8.560000e-02" style="stop-color:#F39597"/>
			<stop  offset="0.2304" style="stop-color:#D98586"/>
			<stop  offset="0.4168" style="stop-color:#AD6A6C"/>
			<stop  offset="0.6374" style="stop-color:#714546"/>
			<stop  offset="0.8842" style="stop-color:#261718"/>
			<stop  offset="1" style="stop-color:#000000"/>
		</linearGradient>
		<path style="fill:url(#SVGID_00000090257070354920685550000004677676546048329910_);" d="M341,280c5.1-8,8.8-16.1,13.9-23.3
			c6-8.4,3.9-22.8-2.1-31.3c-5.4-7.8-8.4-17.1-8.7-26.5c-0.4-15.4,0.7-30.8,1.2-46.2c0.1-2.4,1.1-4.5,3.7-4.7
			c2.8-0.3,3.6,2.1,4.2,4.2c2.5,8.8,3.5,17.8,6.1,26.6c6.5,21.9,16.8,41.7,29.8,60c1.1,1.5,2.5,2.8,1.9,5.2
			c-2.7,3.6-5.7,1.8-8.9,0.5c-10.1-4-15.5,0.1-14.9,11.2c0.2,2.5,0.6,5.1,1.4,7.4c2.5,7.4,4.9,13.6-7.7,11.8
			c-5.1-0.7-8.1,5.1-6.7,11c1.6,6.9,1.5,14.2,5.3,21.1C350.1,304.8,342,292.9,341,280z"/>
		<path class="st8" d="M693.7,436.7c2.5,8-3.4,13.5-11.5,14.7c-8.3,1.2-16.1-0.2-23.3-4.9c-6.2-4.1-6.2-8.7,0.3-12.2
			c9.8-5.2,20.9-8.3,31-1.9C692,433.5,693.2,434.9,693.7,436.7z"/>
		<path class="st8" d="M688.2,404.4c-4.5,9-28.6,21.8-33.9,12.2c-5.5-10,19.8-22.5,28.8-22.3C689.8,394.5,691.7,397.4,688.2,404.4z"
			/>
		<path class="st8" d="M352.8,411.7c-6.1-8.3-0.4-19.3,10.3-17.6c8.1,1.3,33.9,22.2,16,25.4C372.8,420.6,356.7,417,352.8,411.7z"/>
		<path class="st8" d="M349.6,457.1c-10.6-2-9.9-15,1.8-18.8c7.7-2.5,11.1-2.2,19.4-1.6c3.9,0.3,14.3,2.7,9.4,8.8
			c-4.7,5.8-14.9,10.3-20.7,11.4C357.2,457.5,351.3,457.4,349.6,457.1z"/>
		<defs>
			<filter id="Adobe_OpacityMaskFilter" filterUnits="userSpaceOnUse" x="708.8" y="604.8" width="268" height="179.6">
				<feColorMatrix  type="matrix" values="1 0 0 0 0  0 1 0 0 0  0 0 1 0 0  0 0 0 1 0"/>
			</filter>
		</defs>
		
			<mask maskUnits="userSpaceOnUse" x="708.8" y="604.8" width="268" height="179.6" id="mask0_82_88_00000068638049231437201870000002280692627124749243_">
			<path class="st9" d="M976.8,239.7H675.3v544.6h301.4V239.7z"/>
		</mask>
		<g class="st10">
			
				<linearGradient id="SVGID_00000126289065236206823360000013636658593329459110_" gradientUnits="userSpaceOnUse" x1="723.2587" y1="287.972" x2="977.3817" y2="373.488" gradientTransform="matrix(1 0 0 -1 0 1022)">
				<stop  offset="0" style="stop-color:#FFFFFF"/>
				<stop  offset="1" style="stop-color:#FD9B9D"/>
			</linearGradient>
			<path style="fill:url(#SVGID_00000126289065236206823360000013636658593329459110_);" d="M976.3,633.8
				c-3.6,7.1-35.3,25.2-42.7,37c-10.2,16.2-17.8,43.7-46.8,73.4c-21.9,22.4-55.1,34.3-74.7,38.8c-14.7,3.4-54.8-0.4-61.3-1.9
				c-25.1-6.1-34.4-5.7-39.7-14.9c-5.4-9.4,0.7-32,1.4-42.8c1-14,1.4-60,1.4-60s33.5-6.7,44.1-9.4c17.4-4.5,44.5-17.1,61-24.5
				c16.4-7.4,34.5-33,104.8-21.7C923.6,607.6,982.6,621.3,976.3,633.8z"/>
		</g>
		<defs>
			
				<filter id="Adobe_OpacityMaskFilter_00000123437648102226566640000000073677395111691648_" filterUnits="userSpaceOnUse" x="675.3" y="392.9" width="283.6" height="232.3">
				<feColorMatrix  type="matrix" values="1 0 0 0 0  0 1 0 0 0  0 0 1 0 0  0 0 0 1 0"/>
			</filter>
		</defs>
		
			<mask maskUnits="userSpaceOnUse" x="675.3" y="392.9" width="283.6" height="232.3" id="mask1_82_88_00000120561055138615293650000017707286821982580131_">
			<path style="fill:#FFFFFF;filter:url(#Adobe_OpacityMaskFilter_00000123437648102226566640000000073677395111691648_);" d="
				M976.8,239.7H675.3v544.6h301.4V239.7z"/>
		</mask>
		<g class="st13">
			
				<linearGradient id="SVGID_00000075859878463876286320000017362985610340474250_" gradientUnits="userSpaceOnUse" x1="700.2081" y1="476.9228" x2="968.3831" y2="567.1677" gradientTransform="matrix(1 0 0 -1 0 1022)">
				<stop  offset="0" style="stop-color:#FFFFFF"/>
				<stop  offset="1" style="stop-color:#FD9B9D"/>
			</linearGradient>
			<path style="fill:url(#SVGID_00000075859878463876286320000017362985610340474250_);" d="M707.2,622.8
				c-7.7-4.9-13.2-30.9-16.1-39.5c-3.8-11.3-18.3-35.9-15.4-47.4c3.4-13.4,27.4-24.7,39-32.3c18.1-11.8,52.6-43.8,69.2-57.6
				c13.4-11.3,29.4-32,56.3-43.4c18.7-7.9,40.9-10.9,62.6-9.4c14.5,1,52,2.3,55.8,16.3c3.1,11.4-23.1,26.9-29.9,36.5
				c-9.2,13-15.2,45.3-19.3,60.6c-5.1,19-15.2,56-26.7,63.7c-17.4,11.6-29.2,7.3-45.5,13.4c-15.5,5.8-34.4,17.4-45.3,23.5
				c-18.4,10.4-31.8,13.3-46.8,15.3C736.2,623.8,714.8,627.7,707.2,622.8z"/>
		</g>
		<defs>
			
				<filter id="Adobe_OpacityMaskFilter_00000059997031721403128890000003360033467816016061_" filterUnits="userSpaceOnUse" x="711.8" y="239.7" width="161.6" height="189.5">
				<feColorMatrix  type="matrix" values="1 0 0 0 0  0 1 0 0 0  0 0 1 0 0  0 0 0 1 0"/>
			</filter>
		</defs>
		
			<mask maskUnits="userSpaceOnUse" x="711.8" y="239.7" width="161.6" height="189.5" id="mask2_82_88_00000075134747822986753770000010106422241070690443_">
			<path style="fill:#FFFFFF;filter:url(#Adobe_OpacityMaskFilter_00000059997031721403128890000003360033467816016061_);" d="
				M976.8,239.7H675.3v544.6h301.4V239.7z"/>
		</mask>
		<g class="st16">
			
				<linearGradient id="SVGID_00000127027994397131756250000016776883456687806613_" gradientUnits="userSpaceOnUse" x1="734.4659" y1="669.7802" x2="888.7019" y2="721.6832" gradientTransform="matrix(1 0 0 -1 0 1022)">
				<stop  offset="0" style="stop-color:#FFFFFF"/>
				<stop  offset="1" style="stop-color:#FD9B9D"/>
			</linearGradient>
			<path style="fill:url(#SVGID_00000127027994397131756250000016776883456687806613_);" d="M744.3,420.6c0.5,2.4,4.3,9.6,6.5,8.6
				c3.7-1.7,12.6-12.4,17-16.3c2.6-2.3,9.9-7.4,13.2-10.1c3.2-2.6,10.9-9.1,14.4-11.5c5.3-3.6,15-10.7,20.5-13.8
				c5.2-2.9,19.3-6.6,24.7-8.9c4.3-1.8,9.6-6.2,12.1-10.2c2.7-4.4-2.6-15.5-3.5-20.7c-1.5-8.6-2.7-26.2-1.3-34.8
				c1.6-10.2,6.8-30.6,12-39.5c3.8-6.4,15.1-13.7,13.3-18.4c-2.2-5.7-20.2-5.3-26.2-5.4c-12.4,0-32.2,3.6-42.4,6.5
				c-16.8,4.8-29.6,16-39,21.8c-12,7.3-23.9,19.1-30.6,26.9c-5.9,7-22.7,22-23.2,31.2c-0.2,3.8,11.5,25.5,14.2,28.4
				c3.4,3.5,13.2,10.3,16.8,13.7c2.1,2,14.2,8.4,16.3,10c1.6,1.2,13.3,4.8,12.4,13.2c-0.8,7-2,8.8-4.5,11.4
				c-1.9,1.9-12,11.5-13.9,12.4C751.2,416.1,744,418.5,744.3,420.6z"/>
		</g>
		<defs>
			
				<filter id="Adobe_OpacityMaskFilter_00000067207672900411943020000009459629061874595730_" filterUnits="userSpaceOnUse" x="52.1" y="604.8" width="268" height="179.6">
				<feColorMatrix  type="matrix" values="1 0 0 0 0  0 1 0 0 0  0 0 1 0 0  0 0 0 1 0"/>
			</filter>
		</defs>
		
			<mask maskUnits="userSpaceOnUse" x="52.1" y="604.8" width="268" height="179.6" id="mask3_82_88_00000152960917460556559870000008713754618321364915_">
			<path style="fill:#FFFFFF;filter:url(#Adobe_OpacityMaskFilter_00000067207672900411943020000009459629061874595730_);" d="
				M353.5,239.7H52.1v544.6h301.4V239.7z"/>
		</mask>
		<g class="st19">
			
				<linearGradient id="SVGID_00000028283189546083385650000010050261061266228392_" gradientUnits="userSpaceOnUse" x1="305.5622" y1="287.9717" x2="51.4392" y2="373.4877" gradientTransform="matrix(1 0 0 -1 0 1022)">
				<stop  offset="0" style="stop-color:#FFFFFF"/>
				<stop  offset="1" style="stop-color:#FD9B9D"/>
			</linearGradient>
			<path style="fill:url(#SVGID_00000028283189546083385650000010050261061266228392_);" d="M52.5,633.8c3.6,7.1,35.3,25.2,42.7,37
				c10.2,16.2,17.8,43.7,46.8,73.4c21.9,22.4,55.1,34.3,74.7,38.8c14.7,3.4,54.8-0.4,61.3-1.9c25.1-6.1,34.4-5.7,39.7-14.9
				c5.4-9.4-0.7-32-1.4-42.8c-1-14-1.4-60-1.4-60s-33.5-6.7-44.1-9.4c-17.4-4.5-44.5-17.1-61-24.5c-16.4-7.4-34.5-33-104.8-21.7
				C105.2,607.6,46.2,621.3,52.5,633.8z"/>
		</g>
		<defs>
			
				<filter id="Adobe_OpacityMaskFilter_00000168803264724285516050000002039981798351391649_" filterUnits="userSpaceOnUse" x="69.9" y="392.9" width="283.6" height="232.3">
				<feColorMatrix  type="matrix" values="1 0 0 0 0  0 1 0 0 0  0 0 1 0 0  0 0 0 1 0"/>
			</filter>
		</defs>
		
			<mask maskUnits="userSpaceOnUse" x="69.9" y="392.9" width="283.6" height="232.3" id="mask4_82_88_00000037677630687315136000000009989031144506653098_">
			<path style="fill:#FFFFFF;filter:url(#Adobe_OpacityMaskFilter_00000168803264724285516050000002039981798351391649_);" d="
				M353.5,239.7H52.1v544.6h301.4V239.7z"/>
		</mask>
		<g class="st22">
			
				<linearGradient id="SVGID_00000065778214257324269940000000481480420064889248_" gradientUnits="userSpaceOnUse" x1="328.6128" y1="476.9224" x2="60.4381" y2="567.1674" gradientTransform="matrix(1 0 0 -1 0 1022)">
				<stop  offset="0" style="stop-color:#FFFFFF"/>
				<stop  offset="1" style="stop-color:#FD9B9D"/>
			</linearGradient>
			<path style="fill:url(#SVGID_00000065778214257324269940000000481480420064889248_);" d="M321.6,622.8
				c7.7-4.9,13.2-30.9,16.1-39.5c3.8-11.3,18.3-35.9,15.4-47.4c-3.4-13.4-27.4-24.7-39-32.3c-18.1-11.8-52.6-43.8-69.2-57.6
				c-13.4-11.3-29.4-32-56.3-43.4c-18.7-7.9-40.9-10.9-62.6-9.4c-14.5,1-52,2.3-55.8,16.3c-3.1,11.4,23.1,26.9,29.9,36.5
				c9.2,13,15.2,45.3,19.3,60.6c5.1,19,15.2,56,26.7,63.7c17.4,11.6,29.2,7.3,45.5,13.4c15.5,5.8,34.4,17.4,45.3,23.5
				c18.4,10.4,31.8,13.3,46.8,15.3C292.6,623.8,314.1,627.7,321.6,622.8z"/>
		</g>
		<defs>
			
				<filter id="Adobe_OpacityMaskFilter_00000140722520102944692820000006585277275391033219_" filterUnits="userSpaceOnUse" x="155.3" y="239.7" width="161.6" height="189.5">
				<feColorMatrix  type="matrix" values="1 0 0 0 0  0 1 0 0 0  0 0 1 0 0  0 0 0 1 0"/>
			</filter>
		</defs>
		
			<mask maskUnits="userSpaceOnUse" x="155.3" y="239.7" width="161.6" height="189.5" id="mask5_82_88_00000110469753147650041550000003904635523558670498_">
			<path style="fill:#FFFFFF;filter:url(#Adobe_OpacityMaskFilter_00000140722520102944692820000006585277275391033219_);" d="
				M353.5,239.7H52.1v544.6h301.4V239.7z"/>
		</mask>
		<g class="st25">
			
				<linearGradient id="SVGID_00000089566163915910499880000012359413759062267270_" gradientUnits="userSpaceOnUse" x1="294.355" y1="669.7799" x2="140.119" y2="721.6829" gradientTransform="matrix(1 0 0 -1 0 1022)">
				<stop  offset="0" style="stop-color:#FFFFFF"/>
				<stop  offset="1" style="stop-color:#FD9B9D"/>
			</linearGradient>
			<path style="fill:url(#SVGID_00000089566163915910499880000012359413759062267270_);" d="M284.5,420.6c-0.5,2.4-4.3,9.6-6.5,8.6
				c-3.7-1.7-12.6-12.4-17-16.3c-2.6-2.3-9.9-7.4-13.2-10.1c-3.2-2.6-10.9-9.1-14.4-11.5c-5.3-3.6-15-10.7-20.6-13.8
				c-5.2-2.9-19.3-6.6-24.7-8.9c-4.3-1.8-9.6-6.2-12.1-10.2c-2.7-4.4,2.6-15.5,3.5-20.7c1.5-8.6,2.6-26.2,1.3-34.8
				c-1.6-10.2-6.8-30.6-12-39.5c-3.8-6.4-15.1-13.7-13.3-18.4c2.2-5.7,20.2-5.3,26.2-5.4c12.4,0,32.2,3.6,42.4,6.5
				c16.8,4.8,29.6,16,39,21.8c12,7.3,23.9,19.1,30.6,26.9c5.9,7,22.7,22,23.2,31.2c0.2,3.8-11.5,25.5-14.2,28.4
				c-3.4,3.5-13.2,10.3-16.8,13.7c-2.1,2-14.1,8.4-16.3,10c-1.6,1.2-13.3,4.8-12.4,13.2c0.8,7,2,8.8,4.5,11.4
				c1.9,1.9,12,11.5,13.9,12.4C277.6,416.1,284.9,418.5,284.5,420.6z"/>
		</g>
		<path d="M515.6,514.5c-5.8-1-9.5,1.8-13.6,3.5c-12.2,5.1-21.6,0-29.3-9.6c-3.4-4.2-6.9-9.6-2.9-15.3c4.4-6,10.4-4.8,15.4-1
			c8.1,6.2,14.2,5.8,19.3-3.7c-17.1-18.6-18.9-26.5-8.5-37.1c9.8-10,28.6-9.7,37.3,0.6c8.9,10.5,5.7,23.2-10,36.6
			c5.2,9.1,12.2,10.2,19.8,4.5c5.4-4,10.5-6.7,15-0.6c4.2,5.8,0.7,11.7-3,16.7C547.3,519.8,534.1,521.7,515.6,514.5z"/>
		<path d="M574.9,382.5c9.9-12.6,24.1-17.6,39.9-17.8c15.3-0.1,29.8-1,43.7-10.8c2.2,12-2.6,20.2-10.2,27.2
			c-6.7,6.2-12.9,11.4-15.4,20.9c-3,11.9-16.2,17.8-30.5,19.3c-7,0.7-14.3,0.2-21.4,0.7c-7.5,0.5-11.1,7.4-19.1,9.3
			C558.2,413.5,563.1,397.7,574.9,382.5z M594,397.8c3.6-3.6,3.5-6.8-1.5-9.5c-3.7-2-7.1-1.5-10.1,0.9c-3.3,2.6-3,5.8-0.7,8.6
			C584.7,401.7,588.8,401.9,594,397.8z"/>
		<path d="M380.8,359.1c14.2,8.5,30.1,4.6,44.7,6.6c20.4,2.8,35.4,19.8,38.9,32.5c2.8,10.2,6.8,20.9,2.9,35.9
			c-11.4-15.3-26.9-11.2-41-12.6c-18.7-1.9-29-10.8-27.8-23.6c6.1,1.5,12.9,7.4,17.9-1.2c1.8-3.1,2.7-6-0.2-9c-2.8-2.9-7-3.9-10.1-2
			c-11.6,7.4-19.1,1.4-25.5-5.7c-6.2-6.8-13.7-13.7-10.8-23.4C374.6,354.9,376.9,358.1,380.8,359.1z"/>
		<path class="st8" d="M497.2,295c-0.9-6.1-1.2-12.3-1-18.5c0.3-6.4,1.2-12.6,3.4-18.7c1.9-5.3,5-9.7,9.1-13.3c3.4-3,6.8-3.5,10.9-1
			c8,4.9,11.5,12.8,12.2,21.8c0.5,7.7,0.1,15.7-1.2,23.3c-2.1,12.6-5,25.2-8,37.6c-1.1,4.6-3,9.1-5.2,13.4c-2.9,5.6-7,5.8-9.8,0.1
			c-2.7-5.2-4.8-10.9-5.9-16.7C499.8,313.9,498.5,304.6,497.2,295z"/>
		<path class="st8" d="M564.4,282.2c-3.8,18-13.9,31.1-26.2,42.6c-3,2.8-6.7,5.3-12.1,3.7c0.2-1.9,0.1-3.9,0.6-5.7
			c2.3-10,5.1-20,6.9-30.1c1.4-7.8,3.7-15.1,8.1-21.6c1.6-2.4,3.6-4.7,5.8-6.6c3.5-3.1,7.5-3.6,11.7-1.6c3.9,1.9,6.1,5.4,6.2,9.8
			C565.4,275.7,564.8,278.7,564.4,282.2z"/>
		<path class="st8" d="M470.1,302.3c-5.1-9-7.8-18.2-7.4-28.2c0.2-5.3,1.6-9.6,6.9-11.6c4.4-1.7,9.8,0,13.5,4.5
			c4.9,5.9,7.6,12.9,8.9,20.4c1.8,9.9,3.4,19.9,4.9,29.9c0.5,3.4,0.4,6.9,0.6,10.9c-7.5,0-11.9-4-15.5-8.6
			C477.9,314.1,474.3,308.3,470.1,302.3z"/>
	</g>
</g>
</svg>
