<?xml version="1.0" encoding="utf-8"?>
<svg version="1.1" id="Слой_1" xmlns="http://www.w3.org/2000/svg" xmlns:xlink="http://www.w3.org/1999/xlink" x="0px" y="0px" viewBox="0 0 200 200"
  style="enable-background:new 0 0 200 200;" xml:space="preserve">
  <g id="title"
    style="font-style:normal;font-weight:normal;font-size:72px;line-height:1;font-family:antre;font-variant-ligatures:none;text-align:center;text-anchor:middle"
    transform="translate(0 0)">
    <path id="path597744"
      style="font-style:normal;font-weight:normal;font-size:72px;line-height:1;font-family:antre;font-variant-ligatures:none;text-align:center;text-anchor:middle"
      d="m 419.26119,-22.176 c -1.296,-1.152 -3.096,-1.296 -4.248,0.072 l -5.256,6.264 c -7.344,8.424 -12.24,10.224 -17.928,10.224 -3.528,0 -6.12,-0.936 -7.416,-2.736 -1.08,-1.44 -1.368,-3.456 -0.936,-5.76 h 6.624 c 4.752,0 8.424,-0.792 11.232,-2.376 2.88,-1.656 4.824,-4.32 5.904,-7.848 0.432,-1.656 0.576,-3.312 0.288,-4.896 -0.72,-5.328 -5.904,-8.424 -10.8,-8.424 -2.88,0 -5.688,0.432 -8.28,1.8 -2.736,1.368 -5.472,3.744 -8.568,7.416 l -10.008,11.88 c -1.152,1.296 -1.152,3.312 0.144,4.464 0.576,0.504 1.296,0.72 2.016,0.72 0.864,0 1.728,-0.288 2.376,-1.008 l 3.24,-3.888 c -1.152,4.392 -0.504,8.568 1.8,11.664 1.8,2.376 5.328,5.184 12.384,5.184 4.248,0 7.776,-0.864 11.232,-2.664 3.816,-1.944 7.056,-4.824 11.088,-9.432 l 5.328,-6.336 c 1.08,-1.296 1.08,-3.168 -0.216,-4.32 z m -18,-3.888 c -0.432,2.016 -1.512,3.312 -3.024,4.176 -1.8,1.08 -4.464,1.584 -8.136,1.584 h -4.896 c 0.072,-0.432 0.216,-0.936 0.36,-1.44 1.656,-5.76 5.328,-9.72 10.872,-9.72 3.384,0 5.544,2.232 4.824,5.4 z"
      stroke-width="0" stroke-linejoin="miter" stroke-miterlimit="2" fill="#ea77a7" stroke="#ea77a7"
      transform="translate(0 424.64049994) translate(306.12886167 50.35423600000001) scale(1.43) translate(-369.0224 37.656)"></path>
    <path id="path597746"
      style="font-style:normal;font-weight:normal;font-size:72px;line-height:1;font-family:antre;font-variant-ligatures:none;text-align:center;text-anchor:middle"
      d="m 443.41719,-24.48 c -1.296,-1.152 -3.528,-0.72 -4.608,0.576 l -10.44,12.312 c -1.008,1.224 -2.736,3.24 -3.888,3.888 l 11.808,-42.552 c 0.432,-1.656 -0.504,-3.384 -2.16,-3.816 -1.656,-0.504 -3.384,0.504 -3.816,2.16 -1.08,4.032 -2.232,7.848 -3.384,12.024 -1.44,5.256 -4.608,9.288 -7.344,12.384 l -7.344,8.712 c -1.152,1.296 -1.152,3.456 0.144,4.536 0.576,0.504 1.296,0.72 2.016,0.72 0.864,0 1.872,-0.432 2.52,-1.224 l 4.68,-5.616 -3.384,12.096 c -0.288,1.152 -0.792,3.384 -0.36,5.112 0.432,1.728 2.304,3.168 3.816,3.168 3.168,0 6.768,-2.304 9.36,-5.256 2.376,-2.664 12.312,-14.544 12.384,-14.616 1.224,-1.368 1.296,-3.528 0,-4.608 z"
      stroke-width="0" stroke-linejoin="miter" stroke-miterlimit="2" fill="#e980ad" stroke="#e980ad"
      transform="translate(0 424.64049994) translate(366.72082167 26.693004120000005) scale(1.43) translate(-411.3944 54.202316)"></path>
    <path id="path597748"
      style="font-style:normal;font-weight:normal;font-size:72px;line-height:1;font-family:antre;font-variant-ligatures:none;text-align:center;text-anchor:middle"
      d="m 465.63594,-24.48 c -1.296,-1.152 -3.528,-0.72 -4.608,0.576 l -10.44,12.312 c -1.008,1.224 -2.736,3.24 -3.888,3.888 l 11.808,-42.552 c 0.432,-1.656 -0.504,-3.384 -2.16,-3.816 -1.656,-0.504 -3.384,0.504 -3.816,2.16 -1.08,4.032 -2.232,7.848 -3.384,12.024 -1.44,5.256 -4.608,9.288 -7.344,12.384 l -7.344,8.712 c -1.152,1.296 -1.152,3.456 0.144,4.536 0.576,0.504 1.296,0.72 2.016,0.72 0.864,0 1.872,-0.432 2.52,-1.224 l 4.68,-5.616 -3.384,12.096 c -0.288,1.152 -0.792,3.384 -0.36,5.112 0.432,1.728 2.304,3.168 3.816,3.168 3.168,0 6.768,-2.304 9.36,-5.256 2.376,-2.664 12.312,-14.544 12.384,-14.616 1.224,-1.368 1.296,-3.528 0,-4.608 z"
      stroke-width="0" stroke-linejoin="miter" stroke-miterlimit="2" fill="#e788b3" stroke="#e788b3"
      transform="translate(0 424.64049994) translate(398.49363417 26.693004120000005) scale(1.43) translate(-433.61315 54.202316)"></path>
    <path id="path597750"
      style="font-style:normal;font-weight:normal;font-size:72px;line-height:1;font-family:antre;font-variant-ligatures:none;text-align:center;text-anchor:middle"
      d="m 504.19869,-22.176 c -1.296,-1.152 -3.096,-1.296 -4.248,0.072 l -5.256,6.264 c -7.344,8.424 -12.24,10.224 -17.928,10.224 -3.528,0 -6.12,-0.936 -7.416,-2.736 -1.08,-1.44 -1.368,-3.456 -0.936,-5.76 h 6.624 c 4.752,0 8.424,-0.792 11.232,-2.376 2.88,-1.656 4.824,-4.32 5.904,-7.848 0.432,-1.656 0.576,-3.312 0.288,-4.896 -0.72,-5.328 -5.904,-8.424 -10.8,-8.424 -2.88,0 -5.688,0.432 -8.28,1.8 -2.736,1.368 -5.472,3.744 -8.568,7.416 l -10.008,11.88 c -1.152,1.296 -1.152,3.312 0.144,4.464 0.576,0.504 1.296,0.72 2.016,0.72 0.864,0 1.728,-0.288 2.376,-1.008 l 3.24,-3.888 c -1.152,4.392 -0.504,8.568 1.8,11.664 1.8,2.376 5.328,5.184 12.384,5.184 4.248,0 7.776,-0.864 11.232,-2.664 3.816,-1.944 7.056,-4.824 11.088,-9.432 l 5.328,-6.336 c 1.08,-1.296 1.08,-3.168 -0.216,-4.32 z m -18,-3.888 c -0.432,2.016 -1.512,3.312 -3.024,4.176 -1.8,1.08 -4.464,1.584 -8.136,1.584 h -4.896 c 0.072,-0.432 0.216,-0.936 0.36,-1.44 1.656,-5.76 5.328,-9.72 10.872,-9.72 3.384,0 5.544,2.232 4.824,5.4 z"
      stroke-width="0" stroke-linejoin="miter" stroke-miterlimit="2" fill="#e691b9" stroke="#e691b9"
      transform="translate(0 424.64049994) translate(427.58948667 50.35423600000001) scale(1.43) translate(-453.9599 37.656)"></path>
    <path id="path597752"
      style="font-style:normal;font-weight:normal;font-size:72px;line-height:1;font-family:antre;font-variant-ligatures:none;text-align:center;text-anchor:middle"
      d="m 568.67469,-22.176 c -1.296,-1.08 -3.24,-0.936 -4.392,0.36 -0.072,0.072 -11.52,13.68 -11.52,13.68 -1.224,1.368 -2.16,2.304 -3.384,2.304 l 4.464,-16.344 c 1.152,-3.96 1.152,-8.136 -1.224,-11.304 -2.232,-2.88 -5.4,-4.176 -8.856,-4.176 -3.96,0 -7.704,1.44 -10.224,4.32 -2.016,-2.952 -4.896,-4.32 -8.28,-4.32 -3.384,0 -6.624,1.512 -8.712,3.744 0.216,-1.008 -0.432,-3.168 -3.096,-3.168 -0.864,0 -1.872,0.36 -2.664,1.512 -0.792,1.152 -1.296,2.16 -3.312,4.536 -4.536,5.4 -11.232,13.32 -11.232,13.32 -1.08,1.296 -0.936,3.312 0.36,4.392 0.576,0.504 1.296,0.72 2.016,0.72 0.864,0 1.656,-0.432 2.304,-1.152 l 6.408,-7.56 -4.824,17.352 c -0.504,2.016 0.648,3.96 3.024,3.96 1.368,0 2.592,-0.936 2.952,-2.304 l 4.104,-14.544 c 2.808,-9.72 7.344,-14.76 12.312,-14.76 4.032,0 4.752,3.672 3.528,7.704 0,0 -4.176,15.48 -4.176,15.48 -0.504,1.944 0.288,3.384 2.016,3.816 2.016,0.504 3.456,-0.504 4.032,-2.376 0.216,-0.792 3.384,-12.456 4.32,-15.84 1.224,-4.608 3.96,-8.784 8.712,-8.784 4.536,0 5.76,3.528 4.536,7.776 l -4.464,16.128 c -0.36,1.368 -0.432,2.52 -0.432,3.168 0,2.88 2.88,5.04 5.904,5.04 3.024,0 5.256,-0.936 7.992,-3.96 0,0 12.024,-14.328 12.096,-14.4 1.08,-1.296 1.008,-3.168 -0.288,-4.32 z"
      stroke-width="0" stroke-linejoin="miter" stroke-miterlimit="2" fill="#e49abf" stroke="#e49abf"
      transform="translate(0 424.64049994) translate(487.02283207 50.35423600000001) scale(1.43) translate(-495.52168 37.656)"></path>
    <path id="path597754"
      style="font-style:normal;font-weight:normal;font-size:72px;line-height:1;font-family:antre;font-variant-ligatures:none;text-align:center;text-anchor:middle"
      d="m 579.36556,0.576 c 4.032,0 7.776,-1.512 10.8,-4.392 2.16,-2.016 3.96,-4.68 5.256,-7.848 2.736,0.72 4.464,0.864 6.624,0.864 1.584,0 3.168,-0.72 3.888,-1.584 l 7.344,-8.856 c 1.08,-1.296 0.936,-3.024 -0.36,-4.104 -1.296,-1.152 -3.312,-1.08 -4.392,0.216 l -6.768,8.064 c -1.44,0 -3.672,-0.216 -4.464,-0.504 0.792,-2.88 1.512,-5.4 1.656,-6.12 1.224,-5.112 -0.144,-8.136 -1.44,-9.792 -1.512,-1.872 -3.744,-2.952 -6.192,-2.952 -1.152,0 -2.232,0.288 -3.312,0.792 -0.432,-1.224 -1.368,-2.016 -3.096,-2.016 -2.232,0 -4.464,0.36 -6.84,1.728 -2.448,1.368 -5.04,3.744 -8.496,7.776 l -9.864,11.736 c -1.152,1.296 -0.936,3.384 0.36,4.464 1.368,1.08 3.024,1.008 4.176,-0.288 l 3.672,-4.392 c 0,0 0,0 0,0 0,0.072 0,0.072 -0.072,0.288 -1.224,4.104 -1.008,8.784 1.656,12.456 2.16,2.88 5.76,4.464 9.864,4.464 z m 4.248,-31.896 c -0.72,1.44 -1.08,3.816 -1.08,5.472 0,3.96 1.368,6.984 4.104,9.72 0.864,0.864 1.872,1.584 3.024,2.232 -1.008,2.304 -2.232,4.176 -3.672,5.544 -1.944,1.8 -4.176,2.736 -6.624,2.736 -3.816,0 -6.048,-2.304 -6.048,-5.76 0,-1.008 0.216,-2.376 0.504,-3.456 0.648,-2.16 1.224,-4.176 1.872,-6.624 1.008,-3.528 2.376,-6.12 4.104,-7.848 1.152,-1.08 2.376,-1.728 3.816,-2.016 z m 7.704,1.08 c 0.288,0 0.936,0.144 1.368,0.648 0.648,0.792 0.72,2.448 0.216,4.464 -0.072,0.576 -0.792,3.024 -1.368,5.04 -1.944,-1.44 -2.808,-3.816 -2.808,-6.336 0,-2.52 1.44,-3.816 2.592,-3.816 z"
      stroke-width="0" stroke-linejoin="miter" stroke-miterlimit="2" fill="#e3a2c5" stroke="#e3a2c5"
      transform="translate(0 424.64049994) translate(577.73807097 50.35423600000001) scale(1.43) translate(-558.95891 37.656)"></path>
    <path id="path597756"
      style="font-style:normal;font-weight:normal;font-size:72px;line-height:1;font-family:antre;font-variant-ligatures:none;text-align:center;text-anchor:middle"
      d="m 635.10594,-5.832 12.24,-44.424 c 0.432,-1.656 -0.576,-3.384 -2.232,-3.816 -1.584,-0.504 -3.312,0.504 -3.744,2.16 l -4.968,18.072 c -2.232,-2.52 -5.688,-3.816 -9,-3.816 -3.96,0 -6.624,0.792 -9.432,2.736 -2.952,2.016 -5.616,5.4 -8.424,8.64 l -8.352,9.936 c -1.152,1.296 -1.008,3.24 0.288,4.392 0.576,0.504 1.296,0.72 2.016,0.72 0.864,0 1.512,-0.144 2.16,-0.864 l 3.024,-3.6 c -1.08,4.608 -0.432,8.712 1.872,11.736 2.232,2.88 5.688,4.536 9.936,4.536 3.096,0 6.048,-0.936 8.64,-2.664 0.792,1.512 2.448,2.664 5.04,2.664 4.896,0 7.704,-3.096 11.376,-7.488 l 10.656,-12.672 c 1.08,-1.296 1.008,-3.24 -0.288,-4.32 -1.296,-1.152 -3.456,-0.864 -4.536,0.504 l -11.376,13.536 c -1.368,1.584 -3.168,4.032 -4.896,4.032 z m -14.616,0.216 c -5.688,0 -6.984,-4.68 -5.544,-9.504 0.576,-2.304 1.152,-4.464 1.8,-6.624 1.512,-5.328 5.04,-9.72 10.368,-9.72 5.112,0 7.344,3.816 6.336,8.28 -0.432,1.944 -1.008,3.816 -1.512,5.544 -3.024,10.8 -7.56,12.024 -11.448,12.024 z"
      stroke-width="0" stroke-linejoin="miter" stroke-miterlimit="2" fill="#e1abcb" stroke="#e1abcb"
      transform="translate(0 424.64049994) translate(637.01714797 26.693004120000005) scale(1.43) translate(-600.41281 54.202316)"></path>
  </g>
</svg>