<svg width="1219" height="1219" viewBox="0 0 1219 1219" fill="none" xmlns="http://www.w3.org/2000/svg">
<circle cx="609.5" cy="609.5" r="609.5" fill="#F5F5F5"/>
<g clip-path="url(#clip0_82_625)">
<path d="M1119.44 735.9C1113.06 719.68 1100.33 709.76 1088.24 699.56C1070.9 684.93 1050.68 676.65 1029.61 671C1022.59 669.12 1021.4 665.52 1024.62 658.88C1027.02 653.94 1029.18 648.92 1030.97 643.57C1037.22 624.82 1037.76 604.56 1044.87 585.98C1054.91 559.76 1068.91 539.16 1096.38 534.05C1107 532.08 1111.55 519.66 1105.3 509.89C1102.36 505.29 1098.82 501.29 1094.63 497.8C1065.25 473.35 1031.69 462.21 995.36 460.69C987.4 460.36 983.59 457.24 981.23 449.43C978.1 439.07 979.82 428.51 979.24 418.06C977.68 390 989.91 370.15 1010.25 355.1C1015.66 351.1 1022.2 347.38 1021.02 338.86C1019.95 331.19 1015.63 325.57 1008.74 322.1C993.83 314.59 979.26 307.4 962.31 305.66C930.35 302.37 899.64 305.35 869.84 319.09C855 325.93 842.13 336.05 828.26 347.47C829.98 311.15 828.25 276.92 818.77 243.53C814.92 229.97 811.28 216.36 804.34 204.26C798.29 193.73 789.69 190.58 779.16 195.05C772.47 197.89 765.87 201.15 759.61 204.98C725.64 225.79 694.79 251.05 669.43 283.68C664.56 289.95 660.24 290.9 653.49 288.17C629.94 278.63 604.69 277.37 581.7 284.98C561.68 291.61 551.04 285.77 538.51 270.37C511.78 237.51 478.13 214.5 442.02 195.88C430.85 190.12 420.27 193.18 415.32 203.69C407.92 219.39 402.56 236.09 399.36 253.43C393.87 283.17 388.99 313.04 392.45 345.05C389.94 343.61 388.74 343.11 387.72 342.31C362.93 322.79 336.4 308.83 305.23 305.94C272.93 302.95 241.81 304.4 212.61 322.13C206.01 326.14 201.75 330.33 201.37 339.04C200.99 347.67 205.57 351.6 211.37 355.68C224.31 364.77 234.47 376.79 239.68 392.93C246.38 413.68 243.84 434.39 238.63 455.02C237.6 459.12 235.25 460.56 231.86 460.34C215.54 459.24 199.72 462.82 184.17 467.29C158.74 474.61 135.2 486.23 117.02 508.05C109.12 517.53 113.42 531.93 125.13 533.87C149.03 537.83 162.66 555.45 172.62 576.98C185.65 605.15 185.64 638.15 199.94 666.31C191.17 672.4 182.01 674.31 173.28 677.04C143.46 686.36 120.37 705.91 102.47 732.98C94.7301 744.69 100.57 756.46 113.64 757.99C135.2 760.52 152.55 771.06 165.29 790.63C174.86 805.33 180.94 822.26 190.19 837.08C217.45 880.77 254.18 907.69 301.93 919.68C342.96 929.98 381.58 923.28 419.86 909.46C430.74 905.53 435.48 906.96 442.34 916.22C464.42 946 492.3 966.22 527.62 971.73C548.89 975.05 568.65 970.48 585 954.23C602.84 936.51 611.11 916.29 612.09 896.77C612.12 896.28 612.14 895.78 612.15 895.29C613.69 846.63 570.13 802.86 516.94 813.89C506.38 816.08 496.69 826.76 498.55 833.61C501.69 845.19 510.53 846.8 520.03 846.31C520.71 846.27 521.4 846.31 522.09 846.31C544.85 846.39 564.26 861.53 572.64 884.94C578.68 901.8 567.91 933.17 543.16 933.22C513.4 933.27 491.33 918.37 472.82 895.62C442.86 858.8 437.1 814.2 445.32 767.99C451.93 730.88 465.22 695.65 480.99 661.79C483.45 656.5 486.17 655.83 490.84 657.95C500.31 662.24 510.16 665.56 519.48 670.18C552.37 686.48 576.37 723.02 574.38 760.16C573.89 769.31 571.18 771.14 563.47 768.23C549.36 762.92 540.15 751.93 531.92 739.01C527.01 731.31 519.63 727.52 511.32 732.35C504.4 736.37 500.44 743.29 503.53 752.15C511.64 775.36 524.52 794.84 546.18 803.87C567.33 812.69 594.44 811.64 606.48 782.03C607.28 780.06 608.3 777.88 611.35 778.28C612.24 779.47 613.38 780.85 614.38 782.35C634.23 811.99 650.74 816.27 681.38 799.75C696.48 791.6 706.7 778.01 714.36 762.27C720.5 749.66 717.69 737.22 709.19 732.5C699.75 727.26 693.51 730.96 685.14 744.2C678.51 754.69 670.06 763.52 658.91 768.51C651.74 771.72 647.95 770 647.53 760.66C647.09 751.12 649.51 742.02 650.11 731.73C656.49 711.69 665.26 694.64 681.11 682.88C694.85 672.68 710.35 666.89 725.42 659.81C734.65 655.47 738.93 658.67 742.24 666.88C754.37 697 766.31 727.16 773.71 759.3C783.68 802.61 780.84 843.81 757.48 881.3C737.67 913.1 712.28 935.4 674.36 932.75C663.16 931.97 652.54 922.7 649.94 910.83C642.44 876.55 663.11 847.23 695.25 846.52C700.39 846.41 705.58 846.54 710.67 845.82C716.25 845.03 720.01 841 721.41 835.13C722.88 828.98 720.56 824.55 715.58 820.93C699.53 809.26 682.08 810.27 665.22 815.88C635.3 825.84 614.11 860.94 613.1 896.13C612.54 915.72 618.22 935.34 632.13 950.68C656.06 977.06 685.74 977.07 715.38 966.05C742.79 955.86 765.3 936.96 781.92 910.47C785.53 904.72 789.31 904.23 795.07 906.72C830.71 922.13 867.5 928.46 905.7 922.32C932.02 918.09 956.79 908.77 979.31 893.25C1010.01 872.08 1030.57 841.28 1046.38 806.09C1059.19 777.59 1078.47 759.01 1109.05 757.72C1119 757.29 1123.67 746.67 1119.44 735.9ZM811.97 423.69C841.44 370.97 900.17 335.93 954.81 342.21C958.45 342.63 962 344.06 966.62 345.3C947.97 371.1 938.8 399.18 942.43 431.39C943.72 439.25 944.28 445.33 946.02 450.96C948.41 458.67 946.69 463.17 939.45 465.35C907.66 474.92 881.92 495.4 857.99 519.37C854.16 523.21 851.08 530.37 842.87 527.34C846.44 519.46 853.57 516.75 858.73 511.85C874.03 497.32 873.35 489.06 855.96 478.48C839.03 468.18 823.95 455.57 813.41 437.14C810.74 432.46 809.34 428.4 811.97 423.69ZM308.91 345.56C352.9 355.52 383.52 382.7 406.38 421.82C409.58 427.3 409.18 431.71 406.11 437.27C396.67 454.36 383.92 467.23 367.84 476.41C363.34 478.98 358.91 481.88 354.9 485.27C350.23 489.22 349.01 493.98 353.1 499.85C357.1 505.59 361.84 510.24 367.02 514.59C370.9 517.84 375.34 520.74 377.96 526.87C370.75 528.62 367.63 523.11 364.45 519.78C343.99 498.34 320.55 482.08 294.75 469.7C293.49 469.1 292.29 468.34 290.99 467.89C273.71 461.99 273.59 461.98 276.76 441.82C280.82 415.97 278.13 391.05 268.35 367.15C265.59 360.4 259.33 355.83 257.27 346.08C274.57 338.73 291.69 340.95 308.91 345.56ZM408.86 871.33C380.44 884.63 351.01 888.43 320.58 883.42C284.12 877.41 253.43 859.34 229.32 828.8C219.97 816.96 213.4 802.93 206.97 788.77C195.8 764.18 179.16 744.65 156.53 731.82C178.1 704.11 239.04 695.91 284.48 722.59C297.81 729.73 310.01 735.56 321.65 742.52C345.17 756.59 371.24 758.47 396.89 762.2C409.2 763.99 409.95 764.77 408.52 778.17C405.63 805.27 406.63 832.2 414.36 858.37C416.39 865.26 414.73 868.59 408.86 871.33ZM447.07 650.75C436.85 671.99 428.37 694.05 421.67 716.91C420.09 722.31 417.34 724.95 411.99 724.86C383.89 724.39 357.17 717.69 332 703.92C304.56 688.91 277.7 672.23 246.46 668.29C242.88 667.84 241.36 665.27 239.44 662.51C226.84 644.36 221.59 622.9 217.67 601.26C212.02 570.09 200.94 542.7 178.12 522.12C175.75 519.98 172.69 518 173.59 514.03C174.47 510.1 178.13 510.31 180.93 509.02C207.44 496.79 235.13 496.16 262.74 500.79C282.15 504.05 299.39 515.04 315.46 527.16C327.25 536.05 337.93 546.69 349.11 556.56C374.6 580.52 397.76 605.02 424.43 624.84C430.64 629.46 436.93 634.03 443.53 637.91C449.08 641.16 449.85 644.97 447.07 650.75ZM718.94 620.38C682.9 632.8 650.27 649.74 629.49 686.63C623.5 697.26 619.84 708.94 615.66 720.41C614.27 724.21 612.75 727.96 611.01 732.47C605.01 726.82 605.73 719.11 603.38 712.85C587.22 669.89 559.24 641.35 518.67 626.73C494.77 618.12 470.37 610.35 448.44 596.09C444.38 593.45 440.45 590.6 436.59 587.93C443.89 571.77 440.58 565.45 424.81 564.53C417.72 564.12 411.29 562.77 406.56 556.7C406.34 552.91 408.87 551.73 410.95 550.87C422.6 546.07 429.78 536.14 435.7 524.94C440.23 516.36 436.81 508.38 427.92 508.22C418.59 508.05 411.88 502.7 403.07 497.04C415.9 488 426.56 478.12 433.97 464.33C439.73 453.61 444.86 442.6 448.32 430.94C450.96 422.05 444.38 414.55 441.31 407.05C426.89 371.9 425.69 335.22 428.51 297.76C429.67 282.38 431.1 267.28 435.87 252.49C438.79 243.44 442.43 240.89 449.89 245.5C469.28 257.5 487.81 270.94 504.25 287.45C517.13 300.39 529.66 313.83 539.73 329.67C544.88 337.76 551.78 334.73 557.26 331.74C586.3 315.87 616.4 318.94 646.67 324.8C654.06 326.23 660.25 331.71 667.7 333.76C672.84 335.17 675.97 334.31 679.23 329.86C700.79 300.43 726.46 275.89 754.97 254.94C761.17 250.39 768.25 247.28 774.92 243.51C783.48 241.68 783.94 247.95 785.16 252.79C795.97 295.49 799.43 338.2 787.4 381.6C783.61 395.27 780.46 408.91 773.5 421.16C770.77 425.97 770.92 431.44 773.05 436.37C783.37 460.27 795.44 482.7 818.02 496.61C811.65 501.93 805.22 505.84 797.85 507.48C792.98 508.57 786.84 506.98 785.23 514.39C783.6 521.86 786.01 528.38 790.54 534.05C797.26 542.47 804.2 550.61 815.34 555C809.32 561.82 803.17 563.76 796.25 564.53C779.28 566.43 776.91 571.13 784.7 587.45C764.6 602.82 741.94 612.45 718.94 620.38ZM796.57 709.22C790.97 690.75 784.34 672.76 775.68 655.75C771.48 647.5 769.19 641.55 779.77 635.41C806.48 619.91 829.19 598.12 851.55 576.03C872.38 556.53 890.72 536.09 913.23 521.5C940.35 503.92 969.14 495.29 1001.27 499.2C1015.46 500.93 1028.65 504.85 1041.96 509.5C1044.57 510.41 1047.29 511.07 1048.98 515.26C1039.52 525.28 1029.4 535.19 1021.88 547.73C1007.98 570.92 1004.35 597.79 998.52 623.87C995.3 638.26 989.54 651.32 982.33 663.7C981.03 665.94 979.33 667.9 976.66 668.09C957.93 669.43 940.85 677.51 923.65 684.54C912.24 689.2 901.63 696.33 890.82 702.68C867.46 716.41 842.21 721.86 816.17 725.12C803.88 726.65 799.69 719.52 796.57 709.22ZM1044.82 745.22C1027.25 760.78 1017.79 782.41 1006.81 803.07C979.51 854.43 939.64 883.67 884.53 885.28C859.31 886.02 834.84 882.11 811.45 871.03C805.68 868.3 803.62 865.76 805.84 858.48C813.47 833.46 814.23 807.64 810.95 781.69C808.75 764.23 809.59 763.24 824.99 762.12C858.91 759.65 890.62 748.78 920.3 730.58C946.01 714.81 972.91 703.56 1003.1 705.9C1008.2 706.29 1013.26 707.33 1018.34 708.07C1036.39 711.52 1051.76 717.08 1065.44 729.15C1059.82 736.91 1051.28 739.5 1044.82 745.22Z" fill="black" stroke="black" stroke-miterlimit="10"/>
<path d="M741.25 667.92C737.96 659.76 733.69 656.58 724.48 660.89C709.46 667.93 694.01 673.69 680.31 683.83C664.51 695.52 655.76 712.47 649.41 732.39C648.81 742.61 646.4 751.66 646.84 761.15C647.27 770.44 651.04 772.14 658.19 768.95C669.3 763.99 677.73 755.21 684.34 744.78C692.68 731.61 698.9 727.93 708.32 733.14C716.79 737.83 719.59 750.19 713.47 762.73C705.83 778.38 695.65 791.9 680.6 800C650.06 816.42 633.6 812.17 613.82 782.7C612.82 781.21 611.68 779.84 610.8 778.65C607.75 778.25 606.74 780.42 605.94 782.37C593.94 811.81 566.91 812.85 545.83 804.08C524.24 795.1 511.39 775.74 503.31 752.66C500.23 743.86 504.18 736.97 511.07 732.98C519.35 728.18 526.72 731.95 531.61 739.6C539.81 752.44 549 763.37 563.06 768.65C570.75 771.54 573.45 769.72 573.94 760.62C575.92 723.7 551.99 687.37 519.21 671.17C509.92 666.58 500.1 663.27 490.66 659.01C486 656.91 483.3 657.57 480.84 662.83C465.12 696.49 451.87 731.51 445.28 768.41C437.08 814.36 442.82 858.69 472.69 895.3C491.14 917.92 513.14 932.73 542.8 932.68C567.47 932.63 578.2 901.45 572.18 884.69C563.82 861.41 544.47 846.37 521.79 846.29C521.11 846.29 520.42 846.25 519.74 846.29C510.27 846.78 501.47 845.18 498.33 833.67C496.48 826.86 506.13 816.24 516.66 814.06C517.48 813.89 518.31 813.73 519.13 813.59C519.42 813.54 519.71 813.5 520.01 813.45C520.54 813.36 521.06 813.27 521.59 813.2C521.92 813.15 522.25 813.11 522.58 813.07C523.06 813.01 523.55 812.94 524.03 812.88C524.38 812.84 524.72 812.81 525.07 812.78C525.53 812.73 525.99 812.68 526.45 812.64C526.81 812.61 527.17 812.59 527.52 812.56C527.96 812.53 528.41 812.49 528.85 812.47C529.22 812.45 529.58 812.44 529.94 812.43C530.37 812.41 530.8 812.39 531.23 812.38C531.6 812.37 531.96 812.37 532.33 812.37C532.75 812.37 533.18 812.36 533.6 812.36C533.96 812.36 534.33 812.37 534.69 812.38C535.11 812.39 535.53 812.39 535.95 812.41C536.31 812.42 536.68 812.45 537.04 812.46C537.45 812.48 537.87 812.5 538.28 812.53C538.65 812.55 539.01 812.59 539.38 812.62C539.78 812.65 540.19 812.68 540.59 812.72C540.95 812.76 541.32 812.8 541.68 812.84C542.08 812.88 542.48 812.93 542.87 812.98C543.23 813.03 543.6 813.08 543.96 813.13C544.35 813.19 544.74 813.24 545.13 813.3C545.49 813.36 545.85 813.42 546.21 813.49C546.6 813.56 546.99 813.62 547.37 813.69C547.72 813.76 548.08 813.83 548.43 813.9C548.82 813.98 549.2 814.05 549.58 814.14C549.93 814.22 550.28 814.3 550.63 814.39C551.01 814.48 551.39 814.57 551.76 814.66C552.11 814.75 552.46 814.85 552.81 814.94C553.18 815.04 553.55 815.14 553.92 815.24C554.27 815.34 554.61 815.45 554.96 815.55C555.33 815.66 555.69 815.77 556.06 815.88C556.4 815.99 556.74 816.1 557.08 816.22C557.44 816.34 557.8 816.46 558.16 816.58C558.5 816.7 558.84 816.82 559.18 816.95C559.53 817.08 559.89 817.21 560.24 817.34C560.58 817.47 560.91 817.6 561.24 817.74C561.59 817.88 561.94 818.02 562.29 818.16C562.62 818.3 562.95 818.44 563.27 818.58C563.62 818.73 563.96 818.88 564.31 819.03C564.64 819.18 564.96 819.33 565.28 819.48C565.62 819.64 565.96 819.8 566.3 819.96C566.62 820.12 566.94 820.28 567.26 820.44C567.59 820.61 567.93 820.77 568.26 820.95C568.58 821.11 568.89 821.28 569.2 821.45C569.53 821.63 569.86 821.8 570.18 821.98C570.49 822.15 570.8 822.33 571.11 822.51C571.43 822.7 571.76 822.88 572.08 823.07C572.39 823.25 572.69 823.44 572.99 823.62C573.31 823.81 573.63 824.01 573.94 824.21C574.24 824.4 574.54 824.59 574.83 824.79C575.14 824.99 575.45 825.19 575.76 825.4C576.05 825.6 576.35 825.8 576.64 826C576.94 826.21 577.25 826.42 577.55 826.64C577.84 826.85 578.13 827.06 578.41 827.27C578.71 827.49 579.01 827.71 579.3 827.93C579.58 828.14 579.86 828.36 580.14 828.58C580.43 828.81 580.72 829.03 581.01 829.26C581.29 829.48 581.56 829.71 581.83 829.93C582.12 830.16 582.4 830.4 582.68 830.64C582.95 830.87 583.22 831.1 583.49 831.34C583.77 831.58 584.05 831.82 584.32 832.07C584.59 832.31 584.85 832.55 585.11 832.79C585.38 833.04 585.65 833.29 585.92 833.54C586.18 833.78 586.43 834.03 586.69 834.28C586.95 834.54 587.22 834.79 587.48 835.05C587.73 835.3 587.98 835.56 588.23 835.81C588.49 836.07 588.74 836.33 589 836.6C589.25 836.86 589.49 837.12 589.73 837.38C589.98 837.65 590.23 837.92 590.48 838.19C590.72 838.45 590.95 838.72 591.19 838.98C591.43 839.26 591.68 839.53 591.92 839.81C592.15 840.08 592.38 840.35 592.6 840.62C592.84 840.9 593.07 841.19 593.31 841.47C593.53 841.74 593.75 842.02 593.97 842.3C594.2 842.59 594.43 842.88 594.65 843.17C594.87 843.45 595.08 843.73 595.29 844.02C595.51 844.31 595.73 844.61 595.95 844.91C596.16 845.2 596.37 845.49 596.57 845.78C596.78 846.08 596.99 846.38 597.2 846.68C597.4 846.97 597.6 847.27 597.8 847.57C598 847.87 598.21 848.18 598.41 848.49C598.6 848.79 598.8 849.09 598.99 849.39C599.19 849.7 599.38 850.01 599.57 850.33C599.76 850.63 599.94 850.94 600.12 851.25C600.31 851.57 600.5 851.88 600.68 852.2C600.86 852.51 601.04 852.82 601.21 853.14C601.39 853.46 601.57 853.78 601.74 854.1C601.91 854.42 602.08 854.73 602.25 855.05C602.42 855.38 602.59 855.7 602.76 856.03C602.92 856.35 603.08 856.67 603.24 856.99C603.4 857.32 603.56 857.65 603.72 857.98C603.87 858.3 604.03 858.63 604.18 858.95C604.33 859.28 604.49 859.62 604.64 859.96C604.79 860.29 604.93 860.62 605.07 860.95C605.22 861.29 605.36 861.63 605.5 861.97C605.64 862.3 605.77 862.64 605.91 862.97C606.05 863.31 606.18 863.66 606.31 864C606.44 864.34 606.56 864.67 606.69 865.01C606.82 865.36 606.94 865.7 607.07 866.05C607.19 866.39 607.31 866.73 607.42 867.07C607.54 867.42 607.65 867.77 607.77 868.12C607.88 868.46 607.99 868.81 608.09 869.15C608.2 869.5 608.3 869.86 608.41 870.22C608.51 870.57 608.61 870.91 608.71 871.26C608.81 871.62 608.91 871.97 609 872.33C609.09 872.68 609.18 873.03 609.27 873.38C609.36 873.74 609.45 874.1 609.53 874.46C609.61 874.81 609.69 875.17 609.77 875.52C609.85 875.88 609.93 876.25 610 876.61C610.07 876.97 610.14 877.32 610.21 877.68C610.28 878.05 610.35 878.41 610.41 878.78C610.47 879.14 610.53 879.5 610.59 879.85C610.65 880.22 610.71 880.59 610.76 880.96C610.81 881.32 610.86 881.68 610.91 882.04C610.96 882.41 611.01 882.78 611.05 883.15C611.09 883.51 611.14 883.87 611.17 884.24C611.21 884.61 611.25 884.99 611.28 885.36C611.31 885.72 611.34 886.09 611.37 886.45C611.4 886.83 611.42 887.2 611.45 887.58C611.47 887.95 611.49 888.31 611.51 888.68C611.51 888.76 611.52 888.85 611.52 888.93L612.99 888.98C616.35 856.39 636.61 825.31 664.49 816.05C681.3 810.47 698.7 809.46 714.69 821.07C719.65 824.67 721.96 829.07 720.5 835.19C719.1 841.03 715.35 845.03 709.79 845.82C704.73 846.54 699.55 846.4 694.42 846.52C662.37 847.23 641.77 876.36 649.25 910.45C651.84 922.24 662.43 931.46 673.59 932.24C711.39 934.87 736.69 912.71 756.44 881.09C779.73 843.82 782.55 802.86 772.62 759.8C765.24 727.85 753.34 697.87 741.25 667.92Z" fill="white"/>
<path d="M408.54 778.56C409.96 765.24 409.21 764.46 396.95 762.69C371.38 758.99 345.39 757.12 321.95 743.13C310.35 736.21 298.19 730.42 284.9 723.32C239.61 696.79 178.86 704.94 157.36 732.49C179.91 745.24 196.51 764.66 207.64 789.11C214.05 803.19 220.6 817.13 229.92 828.9C253.96 859.27 284.55 877.23 320.89 883.2C351.23 888.18 380.57 884.4 408.89 871.18C414.74 868.45 416.4 865.14 414.37 858.28C406.65 832.27 405.67 805.5 408.54 778.56Z" fill="white"/>
<path d="M854.571 480.64C871.901 491.16 872.581 499.37 857.331 513.81C852.191 518.68 845.091 521.38 841.521 529.21C849.701 532.22 852.771 525.1 856.591 521.28C880.441 497.46 906.1 477.09 937.79 467.58C945.01 465.41 946.721 460.93 944.341 453.27C942.601 447.67 942.051 441.63 940.761 433.81C937.141 401.79 946.271 373.87 964.871 348.22C960.261 346.99 956.721 345.57 953.091 345.15C898.631 338.9 840.081 373.74 810.701 426.15C808.081 430.83 809.471 434.87 812.141 439.52C822.671 457.86 837.701 470.4 854.571 480.64Z" fill="white"/>
<path d="M443.46 639.12C436.88 635.26 430.61 630.72 424.42 626.13C397.83 606.43 374.75 582.07 349.34 558.25C338.2 548.44 327.55 537.86 315.8 529.02C299.78 516.97 282.59 506.04 263.25 502.8C235.72 498.19 208.12 498.82 181.7 510.98C178.9 512.27 175.26 512.06 174.38 515.96C173.49 519.91 176.53 521.87 178.9 524C201.65 544.46 212.7 571.69 218.33 602.68C222.24 624.2 227.47 645.53 240.03 663.57C241.94 666.32 243.46 668.87 247.03 669.32C278.17 673.24 304.95 689.81 332.3 704.74C357.39 718.43 384.03 725.1 412.04 725.56C417.37 725.65 420.11 723.02 421.69 717.65C428.37 694.92 436.82 672.99 447.01 651.87C449.75 646.14 448.98 642.35 443.46 639.12Z" fill="white"/>
<path d="M277.201 444.18C274.041 464.21 274.161 464.23 291.391 470.09C292.681 470.53 293.891 471.29 295.141 471.89C320.861 484.2 344.23 500.37 364.62 521.68C367.79 524.99 370.9 530.46 378.09 528.73C375.48 522.64 371.05 519.76 367.18 516.52C362.01 512.2 357.29 507.58 353.3 501.87C349.23 496.04 350.441 491.3 355.101 487.38C359.101 484.01 363.511 481.13 368.001 478.57C384.031 469.44 396.731 456.64 406.141 439.66C409.201 434.13 409.601 429.75 406.411 424.3C383.631 385.41 353.101 358.39 309.251 348.49C292.091 343.91 275.021 341.7 257.771 349.01C259.831 358.7 266.061 363.25 268.811 369.96C278.571 393.71 281.25 418.48 277.201 444.18Z" fill="white"/>
<path d="M1016.41 708.88C1011.35 708.14 1006.31 707.11 1001.22 706.72C971.121 704.4 944.311 715.58 918.681 731.26C889.101 749.35 857.491 760.16 823.681 762.62C808.331 763.73 807.491 764.72 809.681 782.08C812.951 807.88 812.191 833.54 804.591 858.42C802.381 865.66 804.431 868.18 810.181 870.89C833.501 881.9 857.891 885.79 883.031 885.05C937.971 883.44 977.711 854.38 1004.92 803.32C1015.87 782.78 1025.3 761.27 1042.81 745.81C1049.25 740.12 1057.77 737.55 1063.35 729.84C1049.72 717.84 1034.4 712.31 1016.41 708.88Z" fill="white"/>
<path d="M814.891 725.82C840.851 722.58 866.021 717.16 889.301 703.51C900.071 697.2 910.651 690.12 922.031 685.48C939.171 678.49 956.201 670.45 974.871 669.13C977.531 668.94 979.231 666.99 980.521 664.77C987.701 652.46 993.441 639.48 996.651 625.17C1002.47 599.24 1006.08 572.52 1019.94 549.47C1027.44 537 1037.52 527.15 1046.95 517.18C1045.26 513.01 1042.55 512.36 1039.95 511.46C1026.69 506.84 1013.53 502.94 999.391 501.22C967.371 497.33 938.671 505.91 911.631 523.39C889.201 537.89 870.921 558.21 850.151 577.6C827.861 599.56 805.221 621.23 778.601 636.64C768.051 642.74 770.341 648.65 774.521 656.86C783.151 673.77 789.771 691.66 795.351 710.02C798.481 720.26 802.651 727.35 814.891 725.82Z" fill="white"/>
<path d="M433.89 466.56C426.51 480.27 415.89 490.09 403.09 499.08C411.88 504.7 418.56 510.02 427.86 510.19C436.72 510.35 440.14 518.28 435.62 526.81C429.72 537.95 422.57 547.82 410.95 552.59C408.88 553.44 406.36 554.62 406.58 558.39C411.29 564.43 417.71 565.77 424.77 566.18C440.49 567.09 443.79 573.38 436.52 589.44C440.36 592.09 444.29 594.93 448.33 597.55C470.19 611.73 494.51 619.45 518.34 628.01C558.78 642.55 586.67 670.92 602.78 713.63C605.13 719.86 604.41 727.52 610.39 733.14C612.13 728.65 613.65 724.93 615.03 721.15C619.2 709.75 622.85 698.14 628.82 687.57C649.54 650.9 682.06 634.06 717.99 621.71C740.92 613.83 763.51 604.26 783.5 588.96C775.74 572.74 778.09 568.07 795.01 566.18C801.91 565.41 808.04 563.48 814.04 556.7C802.94 552.34 796.03 544.25 789.32 535.87C784.8 530.23 782.4 523.74 784.02 516.32C785.63 508.95 791.75 510.53 796.6 509.45C803.94 507.82 810.36 503.93 816.7 498.64C794.19 484.81 782.16 462.51 771.88 438.75C769.76 433.86 767.61 427.42 770.33 422.63C777.27 410.46 782.41 397.89 786.18 384.3C798.18 341.14 794.72 298.69 783.95 256.24C782.73 251.43 782.27 245.2 773.74 247.02C767.09 250.77 760.03 253.86 753.85 258.39C725.43 279.22 699.85 303.61 678.36 332.87C675.11 337.3 671.98 338.16 666.86 336.75C659.44 334.71 653.26 329.27 645.9 327.85C615.73 322.03 585.72 318.98 556.78 334.75C551.32 337.73 544.44 340.74 539.31 332.69C529.27 316.94 516.79 303.58 503.94 290.72C487.55 274.31 469.08 260.95 449.75 249.02C442.31 244.43 438.68 246.96 435.77 255.96C431.02 270.66 429.59 285.67 428.44 300.97C425.64 338.21 426.83 374.67 441.2 409.62C444.27 417.08 450.83 424.54 448.19 433.37C444.74 444.96 439.63 455.91 433.89 466.56Z" fill="white"/>
<path d="M611.591 893.16C611.581 893.77 611.581 894.38 611.561 894.98C611.571 894.52 611.591 894.06 611.591 893.6C611.591 893.45 611.581 893.31 611.591 893.16Z" fill="white"/>
<path d="M610 155.37C622.714 155.37 633.02 145.632 633.02 133.62C633.02 121.608 622.714 111.87 610 111.87C597.286 111.87 586.98 121.608 586.98 133.62C586.98 145.632 597.286 155.37 610 155.37Z" stroke="black" stroke-width="20" stroke-miterlimit="10"/>
<path d="M730.49 419.57C733.51 419.78 768.74 427.02 768.74 427.02L770 425.16C770 425.16 750.42 384.94 746.84 381.11C711.58 343.39 697.18 322.6 608.39 316.95C511.87 310.81 449 422.57 449 422.57C449 422.57 481.19 409.46 504.29 412.19C525.2 414.66 562.44 420.76 580.3 449.02C593.52 469.94 606.53 552.6 606.53 552.6C606.53 552.6 624.11 480.47 637.27 459.9C650.96 438.51 683.8 416.3 730.49 419.57Z" fill="url(#paint0_radial_82_625)"/>
<path d="M783.75 274.45C784.2 281.36 784.91 287.52 784.72 293.89C784.48 302 784.24 309.56 787.41 315.36C789.74 319.63 788.95 326.15 787.47 331.77C783.47 346.95 783.38 362.06 782.3 377.28C781.36 390.51 776.45 399.95 770.48 401.15C773.38 377.84 773.38 377.84 761.48 370.54C761.82 369.36 762.1 368.13 762.5 367.02C763.85 363.29 766.24 359.11 764.29 355.59C762.25 351.92 759.1 353.14 756.26 356.08C753.93 358.5 751.81 361.83 749.21 363.06C748.9 363.21 748.56 362.83 748.02 362.6C747.37 357.48 750 354.12 751.6 350.83C757.03 339.72 762.26 328.39 766.75 316.14C770.56 305.77 774.06 296 772.98 283.22C772.21 274.1 777.09 264.71 779.68 255.59C780.19 253.8 781.58 253.16 782.64 253.95C783.74 254.77 783.73 256.76 783.59 258.76C783.23 263.91 782.15 269.27 783.75 274.45Z" fill="url(#paint1_linear_82_625)"/>
<path d="M436.95 379.04C442.08 371.07 445.71 362.99 450.89 355.73C456.91 347.3 454.78 332.89 448.81 324.39C443.38 316.64 440.38 307.3 440.14 297.86C439.75 282.5 440.84 267.07 441.33 251.67C441.41 249.22 442.45 247.21 445.02 246.94C447.8 246.65 448.6 249.08 449.2 251.16C451.72 259.91 452.69 269.01 455.31 277.81C461.82 299.74 472.07 319.49 485.13 337.84C486.2 339.34 487.62 340.68 487.05 343.07C484.33 346.72 481.35 344.84 478.14 343.58C468 339.58 462.6 343.67 463.29 354.76C463.45 357.26 463.89 359.82 464.7 362.17C467.25 369.62 469.6 375.73 457.01 373.96C451.88 373.24 448.91 379.03 450.33 384.99C451.96 391.89 451.86 399.18 455.67 406.06C446.13 403.83 437.97 391.88 436.95 379.04Z" fill="url(#paint2_linear_82_625)"/>
<path d="M789.72 535.72C792.21 543.76 786.31 549.24 778.24 550.44C769.98 551.67 762.09 550.22 754.91 545.52C748.68 541.45 748.68 536.78 755.18 533.33C764.99 528.12 776.09 525.06 786.22 531.42C787.98 532.52 789.15 533.89 789.72 535.72Z" fill="#FD9B9D"/>
<path d="M784.24 503.39C779.73 512.36 755.65 525.21 750.31 515.63C744.76 505.67 770.08 493.1 779.07 493.32C785.76 493.49 787.74 496.44 784.24 503.39Z" fill="#FD9B9D"/>
<path d="M448.82 510.7C442.72 502.37 448.43 491.36 459.11 493.09C467.25 494.41 493.02 515.34 475.09 518.49C468.75 519.6 452.71 516.01 448.82 510.7Z" fill="#FD9B9D"/>
<path d="M445.63 556.11C434.99 554.14 435.72 541.11 447.47 537.36C455.2 534.9 458.58 535.11 466.91 535.78C470.81 536.09 481.25 538.47 476.33 544.57C471.67 550.35 461.42 554.89 455.67 555.97C453.16 556.45 447.26 556.42 445.63 556.11Z" fill="#FD9B9D"/>
<mask id="mask0_82_625" style="mask-type:luminance" maskUnits="userSpaceOnUse" x="771" y="338" width="302" height="546">
<path d="M1072.76 338.74H771.33V883.33H1072.76V338.74Z" fill="white"/>
</mask>
<g mask="url(#mask0_82_625)">
<path d="M1072.28 732.75C1068.66 739.84 1037.02 757.99 1029.59 769.77C1019.35 786.02 1011.79 813.47 982.78 843.2C960.92 865.6 927.7 877.48 908.04 881.97C893.31 885.34 853.22 881.58 846.73 880.02C821.62 873.97 812.35 874.33 807 865.08C801.58 855.71 807.67 833.05 808.41 822.25C809.36 808.26 809.78 762.21 809.78 762.21C809.78 762.21 843.32 755.55 853.87 752.82C871.3 748.3 898.41 735.68 914.83 728.28C931.24 720.89 949.36 695.24 1019.64 706.63C1019.63 706.62 1078.61 720.34 1072.28 732.75Z" fill="url(#paint3_linear_82_625)"/>
</g>
<mask id="mask1_82_625" style="mask-type:luminance" maskUnits="userSpaceOnUse" x="771" y="338" width="302" height="546">
<path d="M1072.76 338.74H771.33V883.33H1072.76V338.74Z" fill="white"/>
</mask>
<g mask="url(#mask1_82_625)">
<path d="M803.19 721.83C795.53 716.94 789.94 690.91 787.07 682.29C783.32 671.02 768.78 646.43 771.71 634.92C775.12 621.51 799.16 610.21 810.74 602.65C828.8 590.85 863.38 558.9 879.91 545.04C893.34 533.78 909.26 513.02 936.23 501.67C954.92 493.8 977.11 490.75 998.82 492.26C1013.32 493.27 1050.8 494.53 1054.62 508.55C1057.72 519.92 1031.55 535.41 1024.76 545.05C1015.6 558.05 1009.57 590.31 1005.46 605.67C1000.37 624.67 990.22 661.71 978.74 669.34C961.3 680.93 949.53 676.69 933.23 682.77C917.69 688.56 898.82 700.13 887.89 706.3C869.52 716.66 856.05 719.58 841.08 721.63C832.19 722.84 810.76 726.66 803.19 721.83Z" fill="url(#paint4_linear_82_625)"/>
</g>
<mask id="mask2_82_625" style="mask-type:luminance" maskUnits="userSpaceOnUse" x="771" y="338" width="302" height="546">
<path d="M1072.76 338.74H771.33V883.33H1072.76V338.74Z" fill="white"/>
</mask>
<g mask="url(#mask2_82_625)">
<path d="M840.35 519.58C840.8 521.95 844.69 529.18 846.89 528.18C850.57 526.51 859.53 515.79 863.93 511.9C866.52 509.61 873.87 504.49 877.12 501.82C880.33 499.17 888.06 492.71 891.51 490.37C896.8 486.77 906.47 479.66 912.06 476.55C917.23 473.67 931.34 469.95 936.79 467.64C941.11 465.81 946.4 461.46 948.85 457.46C951.56 453.02 946.23 441.93 945.32 436.8C943.8 428.23 942.67 410.63 943.98 402.03C945.54 391.82 950.73 371.38 956.02 362.5C959.82 356.11 971.08 348.84 969.28 344.08C967.13 338.38 949.13 338.75 943.04 338.73C930.66 338.69 910.84 342.28 900.63 345.19C883.79 349.99 871.04 361.2 861.61 366.95C849.64 374.25 837.68 386.01 831.04 393.85C825.1 400.87 808.36 415.89 807.84 425.07C807.62 428.9 819.3 450.62 822.08 453.47C825.48 456.97 835.28 463.8 838.85 467.14C840.94 469.1 853 475.5 855.13 477.14C856.74 478.38 868.41 481.89 867.5 490.36C866.75 497.38 865.51 499.2 863 501.75C861.11 503.67 851.02 513.2 849.12 514.13C847.19 515.08 839.95 517.49 840.35 519.58Z" fill="url(#paint5_linear_82_625)"/>
</g>
<mask id="mask3_82_625" style="mask-type:luminance" maskUnits="userSpaceOnUse" x="148" y="338" width="302" height="546">
<path d="M449.49 338.74H148.06V883.33H449.49V338.74Z" fill="white"/>
</mask>
<g mask="url(#mask3_82_625)">
<path d="M148.54 732.75C152.16 739.84 183.8 757.99 191.23 769.77C201.47 786.02 209.03 813.47 238.04 843.2C259.9 865.6 293.12 877.48 312.78 881.97C327.51 885.34 367.6 881.58 374.09 880.02C399.2 873.97 408.47 874.33 413.82 865.08C419.24 855.71 413.15 833.05 412.41 822.25C411.46 808.26 411.04 762.21 411.04 762.21C411.04 762.21 377.5 755.55 366.95 752.82C349.52 748.3 322.41 735.68 305.99 728.28C289.58 720.89 271.46 695.24 201.18 706.63C201.19 706.62 142.21 720.34 148.54 732.75Z" fill="url(#paint6_linear_82_625)"/>
</g>
<mask id="mask4_82_625" style="mask-type:luminance" maskUnits="userSpaceOnUse" x="148" y="338" width="302" height="546">
<path d="M449.49 338.74H148.06V883.33H449.49V338.74Z" fill="white"/>
</mask>
<g mask="url(#mask4_82_625)">
<path d="M417.63 721.83C425.29 716.94 430.88 690.91 433.75 682.29C437.5 671.02 452.04 646.43 449.11 634.92C445.7 621.51 421.66 610.21 410.08 602.65C392.02 590.85 357.44 558.9 340.91 545.04C327.48 533.78 311.56 513.02 284.59 501.67C265.9 493.8 243.71 490.75 222 492.26C207.5 493.27 170.02 494.53 166.2 508.55C163.1 519.92 189.27 535.41 196.06 545.05C205.22 558.05 211.25 590.31 215.36 605.67C220.45 624.67 230.6 661.71 242.08 669.34C259.52 680.93 271.29 676.69 287.59 682.77C303.13 688.56 322 700.13 332.93 706.3C351.3 716.66 364.77 719.58 379.74 721.63C388.63 722.84 410.06 726.66 417.63 721.83Z" fill="url(#paint7_linear_82_625)"/>
</g>
<mask id="mask5_82_625" style="mask-type:luminance" maskUnits="userSpaceOnUse" x="148" y="338" width="302" height="546">
<path d="M449.49 338.74H148.06V883.33H449.49V338.74Z" fill="white"/>
</mask>
<g mask="url(#mask5_82_625)">
<path d="M380.47 519.58C380.02 521.95 376.13 529.18 373.93 528.18C370.25 526.51 361.29 515.79 356.89 511.9C354.3 509.61 346.95 504.49 343.7 501.82C340.49 499.17 332.76 492.71 329.31 490.37C324.02 486.77 314.35 479.66 308.76 476.55C303.59 473.67 289.48 469.95 284.03 467.64C279.71 465.81 274.42 461.46 271.97 457.46C269.26 453.02 274.59 441.93 275.5 436.8C277.02 428.23 278.15 410.63 276.84 402.03C275.28 391.82 270.09 371.38 264.8 362.5C261 356.11 249.74 348.84 251.54 344.08C253.69 338.38 271.69 338.75 277.78 338.73C290.16 338.69 309.98 342.28 320.19 345.19C337.03 349.99 349.78 361.2 359.21 366.95C371.18 374.25 383.14 386.01 389.78 393.85C395.72 400.87 412.46 415.89 412.98 425.07C413.2 428.9 401.52 450.62 398.74 453.47C395.34 456.97 385.54 463.8 381.97 467.14C379.88 469.1 367.82 475.5 365.69 477.14C364.08 478.38 352.41 481.89 353.32 490.36C354.07 497.38 355.31 499.2 357.82 501.75C359.71 503.67 369.8 513.2 371.7 514.13C373.63 515.08 380.87 517.49 380.47 519.58Z" fill="url(#paint8_linear_82_625)"/>
</g>
<path d="M611.56 613.46C605.8 612.42 602.02 615.25 597.97 616.96C585.81 622.1 576.4 617.01 568.68 607.38C565.31 603.17 561.75 597.74 565.82 592.1C570.18 586.06 576.23 587.34 581.18 591.12C589.26 597.28 595.41 596.87 600.5 587.42C583.37 568.86 581.61 560.88 591.97 550.31C601.75 540.34 620.62 540.62 629.31 550.87C638.24 561.4 634.97 574.03 619.36 587.47C624.52 596.58 631.57 597.66 639.14 591.99C644.5 587.98 649.68 585.33 654.1 591.41C658.28 597.17 654.77 603.09 651.13 608.08C643.27 618.85 630.1 620.71 611.56 613.46Z" fill="black"/>
<path d="M670.89 481.52C680.77 468.95 694.95 463.9 710.75 463.77C726.08 463.64 740.59 462.72 754.45 453C756.69 464.98 751.81 473.18 744.21 480.25C737.55 486.46 731.3 491.6 728.86 501.15C725.82 513.01 712.68 518.99 698.32 520.47C691.27 521.19 684.06 520.7 676.96 521.17C669.43 521.67 665.87 528.53 657.89 530.51C654.21 512.52 659.08 496.74 670.89 481.52ZM689.96 496.8C693.52 493.18 693.42 490.03 688.47 487.34C684.77 485.33 681.38 485.84 678.36 488.22C675.08 490.8 675.36 494.01 677.62 496.83C680.74 500.71 684.75 500.9 689.96 496.8Z" fill="black"/>
<path d="M476.79 458.1C490.95 466.64 506.85 462.68 521.46 464.69C541.84 467.49 556.86 484.45 560.31 497.15C563.08 507.33 567.08 518.08 563.24 533.01C551.88 517.69 536.38 521.83 522.27 520.43C503.56 518.57 493.27 509.6 494.46 496.81C500.58 498.33 507.33 504.16 512.35 495.64C514.17 492.55 515.05 489.64 512.12 486.68C509.29 483.82 505.1 482.73 502.01 484.7C490.39 492.11 482.91 486.11 476.47 478.99C470.31 472.18 462.76 465.32 465.63 455.62C470.65 453.92 472.87 457.08 476.79 458.1Z" fill="black"/>
<path d="M593.17 394.04C592.32 387.93 591.92 381.75 592.18 375.59C592.45 369.15 593.34 362.95 595.55 356.88C597.48 351.56 600.54 347.21 604.64 343.57C608.03 340.56 611.48 340.07 615.51 342.56C623.49 347.49 627.03 355.37 627.67 364.31C628.22 372.01 627.73 379.98 626.46 387.6C624.36 400.25 621.47 412.77 618.51 425.23C617.41 429.85 615.53 434.38 613.35 438.59C610.46 444.17 606.39 444.34 603.5 438.71C600.83 433.52 598.7 427.79 597.56 422.03C595.75 412.89 594.51 403.63 593.17 394.04Z" fill="#FD9B9D"/>
<path d="M660.42 381.22C656.63 399.2 646.55 412.34 634.25 423.84C631.23 426.66 627.53 429.13 622.11 427.58C622.28 425.67 622.25 423.7 622.67 421.84C624.95 411.8 627.74 401.87 629.56 391.74C630.97 383.91 633.27 376.63 637.62 370.15C639.24 367.73 641.21 365.48 643.37 363.57C646.84 360.49 650.92 359.96 655.06 361.99C658.97 363.91 661.13 367.35 661.29 371.8C661.4 374.74 660.81 377.7 660.42 381.22Z" fill="#FD9B9D"/>
<path d="M566.13 401.27C561.04 392.22 558.37 383.06 558.73 373.06C558.91 367.79 560.32 363.49 565.67 361.46C570.05 359.8 575.52 361.5 579.18 365.94C584.05 371.85 586.75 378.85 588.1 386.3C589.91 396.24 591.52 406.22 593.02 416.22C593.53 419.62 593.44 423.1 593.65 427.1C586.15 427.07 581.76 423.07 578.1 418.45C573.87 413.12 570.27 407.29 566.13 401.27Z" fill="#FD9B9D"/>
<path d="M390.3 995H411.18V1040.36L423.42 995H443.58L424.86 1056.38L444.48 1121H424.32L411.18 1072.4V1121H390.3V995ZM460.648 1121V995H481.528V1121H460.648ZM497.646 1012.82V995H549.486V1012.82H534.006V1121H513.126V1012.82H497.646ZM563.859 1036.04V1015.52C563.859 1002.74 572.499 994.28 585.279 994.28H596.979C609.759 994.28 618.399 1002.74 618.399 1015.52V1038.74H597.339V1017.14C597.339 1014.98 595.899 1013.54 593.739 1013.54H588.339C586.179 1013.54 584.739 1014.98 584.739 1017.14V1036.4C584.739 1038.38 585.819 1040.54 587.439 1041.62L607.599 1057.64C614.079 1061.96 618.399 1070.24 618.399 1077.98V1100.48C618.399 1113.26 609.759 1121.72 596.979 1121.72H585.279C572.499 1121.72 563.859 1113.26 563.859 1100.48V1077.26H584.739V1098.86C584.739 1101.02 586.179 1102.46 588.339 1102.46H593.739C595.899 1102.46 597.339 1101.02 597.339 1098.86V1077.62C597.339 1075.46 596.259 1073.48 594.639 1072.22L574.659 1056.38C568.179 1051.88 563.859 1043.78 563.859 1036.04ZM638.116 1100.48V995H658.996V1098.86C658.996 1101.02 660.436 1102.46 662.596 1102.46H667.996C670.156 1102.46 671.596 1101.02 671.596 1098.86V995H692.656V1100.48C692.656 1113.26 684.016 1121.72 671.236 1121.72H659.536C646.756 1121.72 638.116 1113.26 638.116 1100.48ZM734.425 1121H714.265V995H734.425L746.665 1048.1C747.925 1052.78 749.005 1059.26 749.545 1064.12H749.905C749.365 1059.26 748.645 1052.78 748.645 1047.74V995H768.805V1121H748.645L736.405 1068.08C735.145 1063.22 734.245 1056.74 733.525 1051.88L733.165 1052.06C733.885 1056.92 734.425 1063.4 734.425 1068.26V1121ZM831.453 1121H790.413V995H831.453V1012.82H811.293V1049.18H829.653V1066.82H811.293V1103.18H831.453V1121Z" fill="black"/>
</g>
<defs>
<radialGradient id="paint0_radial_82_625" cx="0" cy="0" r="1" gradientUnits="userSpaceOnUse" gradientTransform="translate(609.5 434.648) scale(152.846 152.846)">
<stop stop-color="#F29495" stop-opacity="0.7608"/>
<stop offset="0.000150176" stop-color="#F29697" stop-opacity="0.7633"/>
<stop offset="0.00171043" stop-color="#F2A1A2" stop-opacity="0.7896"/>
<stop offset="0.00390354" stop-color="#F2A8A9" stop-opacity="0.8266"/>
<stop offset="0.01" stop-color="#F2AAAB" stop-opacity="0.9294"/>
<stop offset="0.1576" stop-color="#F6C3C3" stop-opacity="0.9399"/>
<stop offset="0.3584" stop-color="#FADDDD" stop-opacity="0.9542"/>
<stop offset="0.5639" stop-color="#FDF0F0" stop-opacity="0.9689"/>
<stop offset="0.7749" stop-color="#FEFBFB" stop-opacity="0.984"/>
<stop offset="1" stop-color="white"/>
</radialGradient>
<linearGradient id="paint1_linear_82_625" x1="747.916" y1="327.394" x2="788.877" y2="327.394" gradientUnits="userSpaceOnUse">
<stop/>
<stop offset="0.6653" stop-color="#AB696A"/>
<stop offset="1" stop-color="#FD9B9D"/>
</linearGradient>
<linearGradient id="paint2_linear_82_625" x1="436.945" y1="326.493" x2="487.156" y2="326.493" gradientUnits="userSpaceOnUse">
<stop stop-color="#FD9B9D"/>
<stop offset="0.0856" stop-color="#F39597"/>
<stop offset="0.2304" stop-color="#D98586"/>
<stop offset="0.4168" stop-color="#AD6A6C"/>
<stop offset="0.6374" stop-color="#714546"/>
<stop offset="0.8842" stop-color="#261718"/>
<stop offset="1"/>
</linearGradient>
<linearGradient id="paint3_linear_82_625" x1="819.258" y1="833.026" x2="1073.38" y2="747.51" gradientUnits="userSpaceOnUse">
<stop stop-color="white"/>
<stop offset="1" stop-color="#FD9B9D"/>
</linearGradient>
<linearGradient id="paint4_linear_82_625" x1="796.207" y1="644.074" x2="1064.38" y2="553.829" gradientUnits="userSpaceOnUse">
<stop stop-color="white"/>
<stop offset="1" stop-color="#FD9B9D"/>
</linearGradient>
<linearGradient id="paint5_linear_82_625" x1="830.469" y1="451.229" x2="984.705" y2="399.326" gradientUnits="userSpaceOnUse">
<stop stop-color="white"/>
<stop offset="1" stop-color="#FD9B9D"/>
</linearGradient>
<linearGradient id="paint6_linear_82_625" x1="401.563" y1="833.026" x2="147.44" y2="747.51" gradientUnits="userSpaceOnUse">
<stop stop-color="white"/>
<stop offset="1" stop-color="#FD9B9D"/>
</linearGradient>
<linearGradient id="paint7_linear_82_625" x1="424.614" y1="644.074" x2="156.44" y2="553.829" gradientUnits="userSpaceOnUse">
<stop stop-color="white"/>
<stop offset="1" stop-color="#FD9B9D"/>
</linearGradient>
<linearGradient id="paint8_linear_82_625" x1="390.352" y1="451.229" x2="236.116" y2="399.326" gradientUnits="userSpaceOnUse">
<stop stop-color="white"/>
<stop offset="1" stop-color="#FD9B9D"/>
</linearGradient>
<clipPath id="clip0_82_625">
<rect width="1028" height="1022" fill="white" transform="translate(96 99)"/>
</clipPath>
</defs>
</svg>
