<?xml version="1.0" encoding="utf-8"?>
<!-- Generator: Adobe Illustrator 28.1.0, SVG Export Plug-In . SVG Version: 6.00 Build 0)  -->
<svg version="1.1" id="Слой_1" xmlns="http://www.w3.org/2000/svg" xmlns:xlink="http://www.w3.org/1999/xlink" x="0px" y="0px"
	 viewBox="0 0 362.8 362.8" style="enable-background:new 0 0 362.8 362.8;" xml:space="preserve">
<style type="text/css">
	.st0{fill-rule:evenodd;clip-rule:evenodd;fill:#E52629;}
</style>
<path id="path3461" class="st0" d="M289.2,108.2c0.9-0.5,2.8,0.5,4.1,2.3c0,0,0,0,64.7,63.2c3.7,3.7,3.7,9.6,0,12.4
	c0,0,0,0-64.7,64.1c-1.4,1.8-2.8,2.3-4.1,1.8c-0.9-0.5-1.8-2.3-1.8-4.6V112.4C287.8,110.1,288.2,108.7,289.2,108.2z"/>
<path id="path3463" class="st0" d="M178.6,2.9h4.6l4.6,1.8c0,0,0,0,66.5,66.4c2.8,3.7,1.8,6.4-2.8,6.4c0,0,0,0-27.5,0
	c-4.6,0-8.7,3.7-8.7,8.7c0,0,0,0,0,49c0,4.6-3.7,8.7-9.6,8.7c0,0,0,0-48.6,0c-4.6,0-8.7-3.7-8.7-8.7c0,0,0,0,0-49
	c0-4.6-3.7-8.7-8.7-8.7h-29.4c-4.6,0-5.5-2.7-2.8-6.4c0,0,0,0,67-66.4C174,4.7,178.6,2.9,178.6,2.9z"/>
<path id="path3465" class="st0" d="M74,106.9c1.4,0.5,1.8,2.3,1.8,4.6v137.9c0,2.3-0.9,3.7-1.8,4.1c-1.4,0.5-2.8,0-4.6-1.4
	c0,0,0,0-65.6-66.4c-3.7-2.7-3.7-8.7,0-12.4c0,0,0,0,65.6-65C71.3,106.9,73.1,106.4,74,106.9z"/>
<path id="path3467" class="st0" d="M157.1,215.4c0,0,0,0,48.6,0c5.5,0,9.6,3.7,9.6,8.7c0,0,0,0,0,52.2c0,5.5,3.7,9.6,8.7,9.6h25.7
	c4.6,0,6.9,2.7,2.8,5.5c0,0,0,0-64.7,65c-1.8,1.8-4.1,2.7-6.9,2.7c-2.3,0-4.6-0.9-6.9-2.7c0,0,0,0-64.7-65c-3.7-2.7-1.8-5.5,2.8-5.5
	c0,0,0,0,27.5,0c4.6,0,8.7-3.7,8.7-9.6c0,0,0,0,0-52.2C148.3,219.1,152.5,215.4,157.1,215.4z"/>
</svg>
