<?xml version="1.0" encoding="utf-8"?>
<!-- Generator: Adobe Illustrator 28.1.0, SVG Export Plug-In . SVG Version: 6.00 Build 0)  -->
<svg version="1.1" id="Слой_1" xmlns="http://www.w3.org/2000/svg" xmlns:xlink="http://www.w3.org/1999/xlink" x="0px" y="0px"
	 viewBox="0 0 362.8 362.8" style="enable-background:new 0 0 362.8 362.8;" xml:space="preserve">
<style type="text/css">
	.st0{fill:#FABD28;}
</style>
<path id="path14" class="st0" d="M293.8,208.3l-120.1-27.2c-35.8-8.1-58.3-43.7-50.2-79.5s43.7-58.3,79.5-50.2s58.3,43.7,50.2,79.5
	c-4.1,17.9-15,32.5-29.4,41.6c0,0-0.1,0-0.1,0.1c-0.4,0.3-0.7,0.8-0.7,1.4c0,0.8,0.5,1.4,1.2,1.6l53.4,12.1c1.3,0.3,2.6-0.2,3.4-1.2
	l0,0c14.7-19.5,23.6-43.8,23.6-70.1c0-61.9-48.4-112.5-109.4-116.1c-0.5-0.1-3.8-0.2-5-0.2c-27-0.4-54.4,7.3-78.2,24
	C51.8,66.1,37.2,149,79.3,209.1l107,152.7c0.5,0.6,1.2,1,2,1s1.6-0.4,2-1.1c0,0,104.9-149.7,105-149.7c0.3-0.4,0.4-0.9,0.4-1.4
	C295.7,209.6,294.9,208.6,293.8,208.3"/>
</svg>
